<svg xmlns="http://www.w3.org/2000/svg" xmlns:xlink="http://www.w3.org/1999/xlink" width="153" height="33" viewBox="0 0 153 33"><defs><path id="4jfla" d="M61.28 37.52V25h5.25c3.55 0 4.54 2.47 4.54 4.19 0 1.73-1.01 4.2-4.54 4.2h-1.76v4.13zm3.49-9.76v2.88h1c1.54 0 1.7-.92 1.7-1.45 0-.63-.2-1.43-1.7-1.43zm14.16 2.18v-1.06h2.99v8.64h-3v-1.01a3.44 3.44 0 0 1-2.8 1.34c-2.2 0-4.01-1.74-4.01-4.66 0-2.18 1.15-4.63 4-4.63 1.2 0 2.05.4 2.82 1.38zm-1.75 5.33c1.1 0 1.87-.8 1.87-2.08 0-1.25-.76-2.05-1.87-2.05-1.3 0-1.85 1.05-1.85 2.05 0 1.04.57 2.08 1.85 2.08zm6.68-6.39h3.11v4.64l3.12-4.64h3v8.64h-3.12v-4.75l-3.08 4.75h-3.03zm4.86-1.12c-1.4 0-2.87-.54-3.5-2l2.02-.76c.25 1 1.12 1.06 1.48 1.06.36 0 1.23-.06 1.48-1.06l2.03.75c-.64 1.47-2.1 2-3.51 2zm10.76 13.53v-3.64c-1.86.02-4.92-.72-4.92-4.46 0-3.72 3.05-4.45 4.92-4.43V25h3.11v3.76c1.87-.02 4.92.71 4.92 4.43 0 3.74-3.07 4.48-4.92 4.46v3.64zm2.92-10.42v4.8c1.05.01 2.11-.76 2.11-2.4 0-1.65-1.06-2.42-2.11-2.4zm-2.73 4.8v-4.8c-1.05-.02-2.12.75-2.12 2.4 0 1.64 1.07 2.41 2.12 2.4zm13.82 5.62v-3.64c-1.85.02-4.92-.72-4.92-4.46 0-3.72 3.05-4.45 4.92-4.43V25h3.12v3.76c1.87-.02 4.91.71 4.91 4.43 0 3.74-3.06 4.48-4.91 4.46v3.64zm2.92-10.42v4.8c1.05.01 2.12-.76 2.12-2.4 0-1.65-1.07-2.42-2.12-2.4zm-2.72 4.8v-4.8c-1.05-.02-2.12.75-2.12 2.4 0 1.64 1.07 2.41 2.12 2.4zm15.72-5.73v-1.06h3v8.64h-3v-1.01a3.44 3.44 0 0 1-2.81 1.34c-2.2 0-4.01-1.74-4.01-4.66 0-2.18 1.16-4.63 4-4.63 1.2 0 2.05.4 2.82 1.38zm-1.74 5.33c1.1 0 1.87-.8 1.87-2.08 0-1.25-.77-2.05-1.87-2.05-1.3 0-1.86 1.05-1.86 2.05 0 1.04.57 2.08 1.86 2.08zm6.67-6.39h3.12v4.64l3.12-4.64h2.99v8.64h-3.12v-4.75l-3.08 4.75h-3.03zm4.86-1.12c-1.4 0-2.86-.54-3.5-2l2.03-.76c.24 1 1.12 1.06 1.47 1.06.36 0 1.23-.06 1.48-1.06l2.03.75c-.64 1.47-2.1 2-3.5 2zm6.82 3.6l-.83-1.94c.94-.5 2.38-.86 3.63-.86 1.34 0 3.53.41 3.53 2.43 0 .93-.5 1.69-1.29 2.03v.03c1.25.29 1.8 1.22 1.8 2.13 0 .66-.44 2.67-4 2.67-.72 0-2.27-.09-3.97-1.04l.8-2.04c.9.54 1.6.82 2.69.82 1.08 0 1.26-.55 1.26-.84 0-.7-.84-.73-1.28-.73H147v-1.88h1.54c.3 0 1.05-.02 1.05-.73 0-.74-.86-.8-1.25-.8-.77 0-1.66.31-2.32.74zm14.29 3.53h2.99c-1 2.96-3.88 2.96-4.63 2.96-2.67 0-4.77-1.63-4.77-4.66 0-2.73 1.8-4.63 4.73-4.63 4.1 0 4.81 3.4 4.74 5.33h-6.55c-.04 1.1.6 2.08 1.85 2.08.85 0 1.48-.38 1.64-1.08zm-3.42-2.7h3.49c-.06-.9-.63-1.75-1.75-1.75-1.05 0-1.69.82-1.74 1.75zm8.01 5.33v-8.64h3.12v3.04h2.86v-3.04H174v8.64h-3.12v-3.45h-2.86v3.45zM55.8 25v30L25 54.97V25zm-29.95.83v28.32l29.1.01V25.83zM40.4 36.68l2.49-2.43-1.2-1.18 4.55-4.52a4.09 4.09 0 0 1 5.56.35 7.4 7.4 0 0 1 2.3 5.34l-1.15-1.17-4.55 4.53-1.19-1.17v-3.2l-1.32 1.31v3.67l-1.85 1.84 9.04 8.83-3.6 3.5-9.08-8.84-9.1 8.83-3.59-3.5 9.04-8.82-1.85-1.84v-3.67l-1.31-1.32v3.2l-1.2 1.18-4.55-4.53-1.14 1.17c0-.77.12-3.27 2.29-5.34a4.09 4.09 0 0 1 5.57-.35l4.53 4.52-1.18 1.18zm51.9 6.17l-.76 4.5h4.52l.76-4.5h3.3L98.1 54.94h-3.28l.85-5.2h-4.52l-.85 5.2h-3.31L89 42.84zm13.27-.02l-.88 5h.04l4.96-5h4.21l-6.18 5.73 4.58 6.38h-4.4l-3.5-5.25h-.03l-.9 5.25h-3.4l2.08-12.11zm-27.28 7.6h2.86l-.77-3.9zm3.81 4.51l-.49-2.09h-4.66l-1.25 2.06h-3.6l7.1-12.06h3.67l2.92 12.09zm-20.75 0l2.12-12.12h8.49l-.4 2.39h-5.13l-.4 2.42h1.49c1.1 0 2.5.14 3.5.98.74.61 1.14 1.54.95 2.68-.14.81-.4 1.64-1.01 2.23-1.34 1.31-3.35 1.39-4.62 1.4zm4.35-5.03l-.46 2.57h.87c1.95 0 2.33-.53 2.44-1.22.13-.76-.02-1.35-1.94-1.35z"/></defs><g><g transform="translate(-23 -23)"><use fill="#fff" xlink:href="#4jfla"/></g></g></svg>