<svg width="193" height="218" viewBox="0 0 193 218" fill="none" xmlns="http://www.w3.org/2000/svg">
<path d="M103.9 122.3C103.9 122.3 99.8 125.6 95.4 131.7C88.8 140.7 91 137.8 89.2 140.3C87.1 143.3 84.9 146.7 82.1 150.7C79.9 153.8 72.5 165.9 72.5 165.9L69 163.4C69 163.4 77.1 154.7 80.7 149.7C83.7 145.6 85.4 143.5 88.1 139.6C89.7 137.3 91.3 134.9 93.7 131.4C96.9 126.8 100.2 119.8 100.2 119.8L103.9 122.3Z" fill="#009DDC"/>
<path d="M114.8 114.7C114.8 114.7 105.3 125.8 101 131.8C100.3 132.8 93.1 143.2 92.3 144.3C89.4 148.4 89.5 148.6 88.1 150.7C83.4 157.3 78.5 165.9 78.5 165.9L75 163.4C75 163.4 80.1 158.7 86.8 149.7C88.1 147.9 86.7 150.4 91.4 143.6C92.4 142.1 98.9 132.6 99.8 131.4C103.6 126 111.4 112.3 111.4 112.3L114.8 114.7Z" fill="#009DDC"/>
<path d="M120.1 115.6C120.1 115.6 114.5 121.4 109.9 127.7C107.1 131.5 103.6 136.3 102.3 138.2C97.9 144.4 95.2 148.8 93.9 150.6C90.7 155.1 84.3 165.8 84.3 165.8L80.8 163.3C80.8 163.3 87.5 156.5 92.6 149.6C94.5 147 98.6 141.4 101.4 137.5C102.8 135.6 107.4 128.8 108.9 126.7C110.5 124.3 116.7 113.2 116.7 113.2L120.1 115.6Z" fill="#009DDC"/>
<path d="M127.4 113.4C127.4 113.4 119.2 123.1 116.6 126.5C115.4 128.1 109.2 136.7 108.1 138.3C105.2 142.4 100.5 149.6 99.7001 150.7C96.6001 155 90.1001 165.9 90.1001 165.9L86.6001 163.4C86.6001 163.4 94.3001 155 98.4001 149.7C100.2 147.4 104.3 141.6 107.2 137.6C110.7 132.7 113.5 128.1 115.4 125.5C116.9 123.4 124.1 110.9 124.1 110.9L127.4 113.4Z" fill="#009DDC"/>
<path d="M132.8 114.1C132.8 114.1 126.2 121.5 123.1 125.5C120.9 128.3 123.8 124.3 113.8 138.3C110.9 142.3 108.2 146.6 105.4 150.7C103.7 153.3 95.8 165.9 95.8 165.9L92.3 163.4C92.3 163.4 100.3 154.8 104 149.7C106.4 146.5 110.6 140.7 112.8 137.6C114.4 135.4 119.9 127.3 121.7 124.5C124.6 120 129.3 111.6 129.3 111.6L132.8 114.1Z" fill="#009DDC"/>
<path d="M138.5 114.3C138.5 114.3 130.8 123.1 127.7 127.4C126.3 129.3 120.5 137.3 118.4 140.3C115.1 144.9 114.6 145.9 111.3 150.7C106.4 157.8 101.7 165.9 101.7 165.9L98.2 163.4C98.2 163.4 108.1 152.2 109.9 149.7C113.1 145.4 113.9 144.5 117.3 139.6C119 137.2 124 129.8 126.2 126.4C128.7 122.6 134.9 111.8 134.9 111.8L138.5 114.3Z" fill="#009DDC"/>
<path d="M144.3 114.3C144.3 114.3 137.1 122.5 133.6 127.2C131.1 130.5 126.1 137.6 124.2 140.3C121.2 144.6 119.3 147.5 117.1 150.7C112.8 156.8 107.5 165.9 107.5 165.9L104 163.4C104 163.4 109.8 157.2 115.7 149.7C117.9 147 120.1 143.9 123.1 139.6C125 137 130.3 129 132.1 126.3C134.8 122.4 140.7 111.9 140.7 111.9L144.3 114.3Z" fill="#009DDC"/>
<path d="M150.1 114.3C150.1 114.3 141.9 123.7 139.3 127.4C137 130.6 131.9 137.5 130 140.3C126.8 144.8 125.3 147.2 122.9 150.7C119.7 155.3 113.3 165.9 113.3 165.9L109.8 163.4C109.8 163.4 115.3 158.1 121.5 149.7C124 146.4 125.3 144.8 128.9 139.6C129.8 138.3 136 129.2 137.9 126.4C139.6 123.9 146.6 111.8 146.6 111.8L150.1 114.3Z" fill="#009DDC"/>
<path d="M155.9 114.3C155.9 114.3 147.1 124.6 145 127.4C143.5 129.5 139.3 135 137.5 137.6C134.8 141.4 132.9 144.5 130.4 148C125.5 155 120.8 163.2 120.8 163.2L117.3 160.7C117.3 160.7 124.7 152.9 129 147C131.8 143.1 133.1 141.6 136.4 136.9C138 134.7 142.4 128.1 143.6 126.4C145.9 123 152.3 111.8 152.3 111.8L155.9 114.3Z" fill="#009DDC"/>
<path d="M161.7 114.3C161.7 114.3 152.9 124.4 150.9 127.4C149.8 129 145.3 135 143.3 137.8C140.2 142.1 138.1 145.5 136.2 148.1C130.8 155.8 127.6 162 127.6 162L124.1 159.5C124.1 159.5 128.8 155.3 134.9 147.1C137.2 144 138.2 142.9 142.3 137C143.4 135.5 147.5 129.2 149.5 126.3C151.4 123.4 158.2 111.7 158.2 111.7L161.7 114.3Z" fill="#009DDC"/>
<path d="M166 116.2C166 116.2 160.2 122.9 158.2 125.6C156.3 128.2 152.9 132.8 150.1 136.7C146.7 141.5 145.7 143.1 144.5 144.8C141 149.3 136.3 158.1 136.3 158.1L132.8 155.6C132.8 155.6 138.2 150.7 142.7 144.6C144.8 141.7 145.3 141.4 149.1 136C151.7 132.4 155.2 126.9 156.8 124.7C158.1 122.8 162.5 113.8 162.5 113.8L166 116.2Z" fill="#009DDC"/>
<path d="M63.8 43.2C72.1 31.5 68.1 37.6 73.5 30C81.6 18.7 86.1 13.4 88.1 11.1C84.1 14.1 80.6 17.4 77.8 21.2C75.2 24.8 72.2 29 69.1 33.2C68.3 34.4 68.2 34.8 62.7 42.4C60 46.2 59 47.2 56.7 50.5C54.5 53.5 52.6 56.1 50.9 58.3C47.2 63.4 44.8 66.8 44.8 66.8H48C50.1 63.4 53.2 58.5 58.1 51.6C59.8 49.2 61 47.1 63.8 43.2Z" fill="#13B6EA"/>
<path d="M72.4 39.8C82.7 25.3 77 33.3 83.8 23.9C91.2001 13.5 95.5 8.2 97.9 5.5C96.2 6.3 94.6 7.1 93.1 8C91 11.3 88 16 83.3 22.6C76.8 31.7 75.8 33.2 71.5 39.1C68.1 43.8 65.1 47.7 62.9 50.7C56.6 59.4 52.8 64.2 50.5 66.9H54C56 63.7 59.1 59 64.3 51.7C65.9 49.2 70 43.2 72.4 39.8Z" fill="#13B6EA"/>
<path d="M81 36.1C82.6 33.8 90.2 23.1 93.2 18.9C100.1 9.19996 103.8 4.69998 105.8 2.59998C104.3 2.99998 102.9 3.49997 101.5 3.99997C99.7 6.99997 96.7001 11.4 91.8 18.2C85.3 27.3 84.1 29.6 80 35.3C76.3 40.5 73.2 44.7 70.4 48.5C63.3 58.4 58.9 63.9 56.2 66.9H60C62.2 63.3 65.9 57.8 71.8 49.5C73.5 47.2 77.1 41.5 81 36.1Z" fill="#13B6EA"/>
<path d="M87 36.1C97.3 21.6 91.5 30 98.2 20.6C106.7 8.80001 111.1 3.4 113.3 1C111.8 1.3 110.2 1.49999 108.7 1.89999C106.6 5.39999 102.9 11 96.8 19.7C94.3 23.2 89.8 30.2 86 35.5C83.1 39.5 79.5 44.4 76.4 48.7C69.3 58.6 64.9 64.1 62.2 67.1H66C68.2 63.5 71.9 58 77.7 49.7C80.8 45.4 82.7 42.1 87 36.1Z" fill="#13B6EA"/>
<path d="M93.0001 36.1C103.3 21.6 93.4001 35.5 100.2 26.1C110 12.4 116.8 3.99995 120 0.199951C118.5 0.299951 116.9 0.39996 115.4 0.59996C112.3 5.79996 106.9 14.4 98.8002 25.7C92.3002 34.7999 94.9001 31.2999 91.9001 35.3999C86.9001 42.3999 83.7002 46.7 82.3002 48.6C75.2002 58.5 70.8001 64 68.1001 67H71.9001C74.1001 63.4 77.8001 57.9 83.7001 49.6C85.4001 47.4 90.0001 40.3 93.0001 36.1Z" fill="#13B6EA"/>
<path d="M99.0999 36.1C103.2 30.4 107.7 24.2 110.5 20.3C119.9 7.3 124.4 2 126.4 0H124.2C123.5 0 122.9 0.100006 122.2 0.100006C120.3 3.40001 116.6 9.3 109.5 19.2C106.7 23.1 102.7 29.2 98.1998 35.4C95.2998 39.4 90.5999 45.8 88.5999 48.6C81.4999 58.5 77.0999 64 74.3999 67H78.1998C80.3998 63.4 84.0999 57.9 89.9999 49.6C91.1999 47.6 94.4999 42.5 99.0999 36.1Z" fill="#13B6EA"/>
<path d="M105.1 36.1C115.4 21.6 110.8 28.3 117.5 18.9C125.2 8.09999 129.6 2.7 132 0H128.2C126.1 3.5 122.4 9.09999 116.1 17.9C109.6 27 114.6 20.8 104.1 35.4C92.5999 51.5 101.5 38.8 94.4999 48.6C87.3999 58.5 82.9999 64 80.3999 67H84.1998C86.3998 63.4 90.0999 57.9 95.9999 49.6C96.6999 48.4 102.1 40.3 105.1 36.1Z" fill="#13B6EA"/>
<path d="M111.1 36.1C121.4 21.6 117.5 27.3 124.2 17.9C131.1 8.29999 135.3 3 137.9 0H134.4C132.2 3.6 128.6 8.89999 122.9 16.9C116.4 26 120.6 20.8 110.2 35.4C107.9 38.6 103 45.2 100.6 48.6C93.4999 58.5 89.0999 64 86.3999 67H90.2999C92.5999 63.4 96.1999 57.9 101.9 49.6C104.9 45.2 108.1 40.2 111.1 36.1Z" fill="#13B6EA"/>
<path d="M117.2 36.1C127.5 21.6 122.3 29.3 129 19.9C137.7 7.69999 142.3 2.3 144.4 0H140.3C138.3 3.4 134.5 9.19999 127.6 18.9C121.1 28 126.6 20.8 116.2 35.4C112.6 40.4 109.9 44.1 106.6 48.6C99.3 58.4 94.9 63.9 92.3 67H96.3C98.5 63.4 102.2 57.9 108 49.6C111.4 44.6 113.8 40.8 117.2 36.1Z" fill="#13B6EA"/>
<path d="M123.2 36.1C133.5 21.6 128.3 29.3 135 19.9C143.7 7.69999 148.2 2.3 150.4 0H146.3C144.3 3.4 140.5 9.19999 133.6 18.9C127.1 28 132.6 20.8 122.2 35.4C119 39.9 114.7 45.6 112.7 48.6C105.6 58.5 101.2 64 98.5 67H102.3C104.5 63.4 108.2 57.9 114 49.6C116.3 46.2 120 40.5 123.2 36.1Z" fill="#13B6EA"/>
<path d="M129.2 36.1C139.5 21.6 134.3 29.3 141 19.9C149.7 7.69999 154.2 2.3 156.4 0H152.3C150.3 3.4 146.5 9.19999 139.6 18.9C133.1 28 138.6 20.8 128.2 35.4C124.4 40.7 121.1 45.1 118.6 48.6C111.5 58.5 107.1 64 104.4 67H108.2C110.5 63.4 114.1 57.9 119.9 49.6C122.5 45.9 125.9 40.7 129.2 36.1Z" fill="#13B6EA"/>
<path d="M135.2 36.1C145.5 21.6 140.3 29.3 147 19.9C155.7 7.69999 160.3 2.3 162.4 0H158.3C156.3 3.4 152.5 9.19999 145.6 18.9C139.1 28 144.6 20.8 134.2 35.4C130.8 40.2 127.6 44.5 124.6 48.6C117.5 58.5 113 64 110.4 67H113.8C114 67 114.1 67 114.3 67C116.5 63.4 120.2 57.9 126 49.6C128.6 45.9 132.4 40 135.2 36.1Z" fill="#13B6EA"/>
<path d="M141.3 36.1C151.6 21.6 146.4 29.3 153.1 19.9C161.8 7.69999 166.3 2.3 168.5 0H164.4C162.4 3.4 158.6 9.19999 151.7 18.9C145.2 28 150.7 20.8 140.3 35.4C136 41.4 133.1 45.3 130.8 48.6C123.8 58.3 119.4 63.8 116.7 66.8C118 66.7 119.3 66.7 120.6 66.6C122.9 63 126.4 57.6 132.1 49.6C134 46.8 138.1 40.6 141.3 36.1Z" fill="#13B6EA"/>
<path d="M147.3 36.1C157.6 21.6 153.3 28.3 160 18.9C168.3 7.29999 172.5 2.2 174.5 0H170.6C168.7 3.2 165.2 8.69999 158.6 17.9C156.9 20.3 161.6 14.1 146.3 35.4C142.3 40.9 138.9 45.5 136.7 48.6C130.2 57.7 125.9 63.1 123.2 66.3C124.6 66.1 125.9 65.9 127.2 65.6C129.5 62 132.9 56.9 138.1 49.6C139.4 47.7 143.8 41 147.3 36.1Z" fill="#13B6EA"/>
<path d="M153.3 36.1C163.6 21.6 159.3 28.3 166 18.9C174.3 7.29999 178.5 2.2 180.6 0H176.6C174.7 3.2 171.2 8.69999 164.6 17.9C158.1 27 162.8 20.8 152.3 35.4C148.1 41.3 145.4 44.9 142.7 48.6C137.1 56.4 133.1 61.5 130.4 64.8C131.8 64.4 133.2 64.1 134.5 63.7C136.7 60.3 139.8 55.7 144.1 49.6C146.2 46.5 151.2 39 153.3 36.1Z" fill="#13B6EA"/>
<path d="M159.3 36.1C169.6 21.6 166.1 27 172.9 17.6C180.6 6.90001 184.4 2.1 186.4 0H182.6C180.8 3 177.5 8.10001 171.4 16.6C164.9 25.7 168.7 20.8 158.2 35.4C155.5 39.2 150.4 46 148.6 48.6C144.4 54.5 141.1 58.8 138.6 62C140 61.4 141.4 60.7 142.8 60C144.7 57.1 147.1 53.7 150 49.6C151.6 47.5 156.6 39.9 159.3 36.1Z" fill="#13B6EA"/>
<path d="M178.3 15.3C171.8 24.4 174.9 20.7 164.4 35.3C161.2 39.8 157 45.4 154.8 48.5C152.8 51.4 150.9 53.8 149.3 56C151.3 54.6 153.2 53 154.9 51.3C155.3 50.7 155.7 50.1 156.2 49.5C159.1 45.3 161.8 41.1 165.4 36.1C175.7 21.6 173 25.8 179.7 16.4C186.7 6.59999 190.4 2.1 192.3 0H188.7C187 2.8 183.9 7.5 178.3 15.3Z" fill="#13B6EA"/>
<path d="M-47.1 152.7C-36.4 137.7 -25.6 123 -18.6 113.2C-8.19997 98.6 -1.00005 89.8 2.19995 86H-2.5C-5.7 91.1 -11.4 100.1 -20.1 112.2C-26.9 121.7 -37.4 136.8 -48.2 152C-60.2 168.7 -72.5 185.5 -79.7 195.6C-88.1 207.3 -93.6 214.2 -96.7 217.8H-92.5C-89.8 213.5 -85.4 206.6 -78.3 196.7C-70.8 186.3 -59 169.3 -47.1 152.7Z" fill="#13B6EA"/>
<path d="M-40.8 152.7C-30.1 137.7 -19.2001 123 -12.3 113.2C-1.90005 98.6 5.29997 89.8 8.59998 86H3.90002C0.700027 91.1 -4.99995 100.1 -13.7 112.2C-20.5 121.7 -31 136.8 -41.8 152C-53.7001 168.7 -66.1 185.5 -73.3 195.6C-81.7 207.3 -87.2 214.2 -90.3 217.8H-86.1C-83.4 213.5 -79 206.6 -71.9 196.7C-64.6 186.3 -52.7001 169.3 -40.8 152.7Z" fill="#13B6EA"/>
<path d="M-34.6001 152.7C-23.9001 137.7 -13.0001 123 -6.1001 113.2C4.2999 98.6 11.4999 89.8 14.7999 86H10.0999C6.89986 91.1 1.19987 100.1 -7.50012 112.2C-14.3001 121.7 -24.8001 136.8 -35.6001 152C-47.6001 168.7 -59.9001 185.5 -67.1001 195.6C-75.5001 207.3 -81.0001 214.2 -84.1001 217.8H-79.9001C-77.2001 213.5 -72.8001 206.6 -65.7001 196.7C-58.3001 186.3 -46.5001 169.3 -34.6001 152.7Z" fill="#13B6EA"/>
<path d="M-28.3 152.7C-17.6 137.7 -6.80005 123 0.199951 113.2C10.7 98.6 17.8 89.8 21.1 86H16.4C13.2 91.1 7.50005 100.1 -1.19995 112.2C-7.99995 121.7 -18.5 136.8 -29.3 152C-41.2001 168.7 -53.6 185.5 -60.8 195.6C-69.2 207.3 -74.7 214.2 -77.8 217.8H-73.6C-70.9 213.5 -66.5 206.6 -59.4 196.7C-52.1 186.3 -40.2001 169.3 -28.3 152.7Z" fill="#13B6EA"/>
<path d="M-22.0001 152.7C-11.3001 137.7 -0.400124 123 6.49988 113.2C16.8999 98.6 24.0999 89.8 27.2999 86H22.5999C19.3999 91.1 13.6999 100.1 4.99988 112.2C-1.80013 121.7 -12.3001 136.8 -23.1001 152C-35.1001 168.7 -47.4001 185.5 -54.6001 195.6C-63.0001 207.3 -68.5001 214.2 -71.6001 217.8H-67.4001C-64.7001 213.5 -60.3001 206.6 -53.2001 196.7C-45.8001 186.3 -33.9001 169.3 -22.0001 152.7Z" fill="#13B6EA"/>
<path d="M-15.7999 152.7C-5.09993 137.7 5.70007 123 12.7001 113.2C23.1001 98.6 30.3001 89.8 33.5001 86H28.8002C25.6002 91.1 19.9001 100.1 11.2001 112.2C4.40007 121.7 -6.0999 136.8 -16.8999 152C-28.8999 168.7 -41.1999 185.5 -48.3999 195.6C-56.7999 207.3 -62.2999 214.2 -65.3999 217.8H-61.1998C-58.4998 213.5 -54.0999 206.6 -46.9999 196.7C-39.4999 186.3 -27.6999 169.3 -15.7999 152.7Z" fill="#13B6EA"/>
<path d="M-9.5 152.7C1.2 137.7 12 123 19 113.2C29.5 98.6 36.6 89.8 39.9 86H35.2C32 91.1 26.3 100.1 17.6 112.2C10.8 121.7 0.299999 136.8 -10.5 152C-22.4 168.7 -33.6 183.9 -40.9 194C-50.7 207.7 -56.6 214.8 -59.2 217.7C-57.6 217.7 -56 217.6 -54.5 217.6C-52 213.4 -47.4 206.2 -39.4 195C-32.1 184.7 -21.4 169.3 -9.5 152.7Z" fill="#13B6EA"/>
<path d="M-3.30005 152.7C7.39995 137.7 18.2 123 25.2 113.2C35.7 98.6 42.8 89.8 46.1 86H41.4C38.2 91.1 32.5 100.1 23.8 112.2C17 121.7 6.49995 136.8 -4.30005 152C-16.2001 168.7 -27.1 183.4 -34.3 193.4C-44.6 207.7 -50.6 214.8 -53 217.5C-51.3 217.4 -49.7 217.2 -48 217.1C-45.5 213 -40.9 205.7 -32.8 194.4C-25.5 184.1 -15.2001 169.3 -3.30005 152.7Z" fill="#13B6EA"/>
<path d="M2.99988 152.7C13.6999 137.7 24.4999 123 31.4999 113.2C41.8999 98.6 49.0999 89.8 52.3999 86H47.6998C44.4998 91.1 38.7999 100.1 30.0999 112.2C23.2999 121.7 12.7999 136.8 1.99988 152C-10.0001 168.7 -20.9001 183.6 -28.1001 193.7C-37.4001 206.8 -43.3001 213.8 -46.1001 217C-44.4001 216.8 -42.8001 216.6 -41.2001 216.3C-38.6001 212 -34.1001 205 -26.7001 194.7C-19.4001 184.4 -8.90012 169.3 2.99988 152.7Z" fill="#13B6EA"/>
<path d="M9.19995 152.7C19.9 137.7 30.7999 123 37.7 113.2C48.2 98.6 55.3 89.8 58.6 86H53.9C50.7 91.1 45 100.1 36.3 112.2C29.5 121.7 19 136.8 8.19995 152C-3.70005 168.7 -13.5 182.1 -20.6 192.2C-30.5 206.1 -36.5 213.1 -39 216C-37.2 215.7 -35.5 215.4 -33.7 215C-31.1 210.7 -26.6 203.7 -19.1 193.2C-11.9 182.9 -2.70005 169.3 9.19995 152.7Z" fill="#13B6EA"/>
<path d="M15.5 152.7C26.2 137.7 37 123 44 113.2C54.4 98.6 61.6 89.8 64.9 86H60.2C57 91.1 51.3 100.1 42.6 112.2C35.8 121.7 25.3 136.8 14.5 152C2.5 168.7 -6.99995 181.7 -14.2 191.7C-23.2 204.3 -28.9 211.3 -31.8 214.6C-30 214.2 -28.3 213.8 -26.6 213.3C-23.9 209 -19.6 202.3 -12.7 192.7C-5.49995 182.4 3.6 169.3 15.5 152.7Z" fill="#13B6EA"/>
<path d="M21.7999 152.7C32.4999 137.7 43.2999 123 50.2999 113.2C60.7999 98.6 67.8998 89.8 71.1998 86H66.4999C63.2999 91.1 57.5999 100.1 48.8999 112.2C42.0999 121.7 31.5999 136.8 20.7999 152C8.79993 168.7 1.19988 179.1 -6.00012 189.2C-15.5001 202.5 -21.4001 209.5 -24.1001 212.7C-22.2001 212.1 -20.3001 211.6 -18.5001 210.9C-15.8001 206.6 -11.5001 199.9 -4.6001 190.3C2.6999 179.9 9.89993 169.3 21.7999 152.7Z" fill="#13B6EA"/>
<path d="M28.0001 152.7C38.7001 137.7 49.6001 123 56.5001 113.2C66.9001 98.6 74.1001 89.8 77.4001 86H72.7001C69.5001 91.1 63.8001 100.1 55.1001 112.2C48.4001 121.7 37.8001 136.8 27.0001 152C15.1001 168.7 9.00017 176.8 1.80017 186.9C-7.19983 199.5 -12.9999 206.5 -15.8999 209.9C-13.8999 209.1 -11.8999 208.4 -9.99988 207.5C-7.29988 203.2 -3.09993 196.8 3.20007 188C10.6001 177.6 16.1001 169.3 28.0001 152.7Z" fill="#13B6EA"/>
<path d="M34.3 152.7C45 137.7 55.8 123 62.8 113.2C73.2001 98.6 80.4 89.8 83.6 86H78.9C75.7 91.1 70 100.1 61.3 112.2C54.5 121.7 44 136.8 33.2 152C21.3 168.7 18.2 172.7 10.9 182.8C1.40002 196.1 -4.50005 203.2 -7.30005 206.3C-5.00005 205.2 -2.79998 204.1 -0.599976 202.9C2.10002 198.6 6.20005 192.3 12.3 183.8C19.8 173.4 22.4 169.3 34.3 152.7Z" fill="#13B6EA"/>
<path d="M40.6 152.7C51.3 137.7 62.1 123 69.1 113.2C79.6 98.6 86.7 89.8 90 86H85.3C82.1001 91.1 76.3999 100.1 67.7 112.2C60.9 121.7 50.4 136.8 39.6 152C27.7 168.7 28.1 167.9 20.9 177.9C12.1 190.2 6.5 197.1 3.5 200.6C6.1 199 8.59998 197.3 11.1 195.5C13.8 191.4 17.4 185.9 22.4 178.9C29.6 168.6 28.6 169.3 40.6 152.7Z" fill="#13B6EA"/>
<path d="M46.7999 152.7C57.4999 137.7 68.3999 123 75.2999 113.2C83.0999 102.3 89.0999 94.6 92.9999 89.8C94.7999 87.3 95.7999 85.9 95.7999 85.9H91.4999C88.2999 91 82.5999 100 73.8999 112.1C67.0999 121.6 56.5999 136.7 45.7999 151.9C33.8999 168.6 39.5999 160 32.3999 170.1C24.8999 180.6 19.5999 187.2 16.3999 191.1C21.5999 186.7 26.0999 181.9 29.9999 176.7C31.1999 175 32.4999 173.2 33.8999 171.2C41.1999 160.9 34.8999 169.3 46.7999 152.7Z" fill="#13B6EA"/>
</svg>
