<svg width="291" height="73" viewBox="0 0 291 73" fill="none" xmlns="http://www.w3.org/2000/svg">
<path d="M102.371 36.4535C101.884 36.4535 101.467 36.0698 101.467 35.6163V35.5814V21.593V21.5232V21.4535C101.502 21.0349 101.884 20.7209 102.336 20.7209C102.788 20.7209 103.17 21.0349 103.205 21.4535V21.5232C103.205 21.5232 103.205 21.5581 103.205 21.593V35.6163V35.6512C103.275 36.0698 102.858 36.4535 102.371 36.4535ZM104.039 18.1395H100.737C97.9215 18.1395 97.7825 20.407 97.7825 21.8721V35.3023C97.7825 36.7674 97.9563 39.0349 100.737 39.0349H104.039C106.855 39.0349 107.029 36.7674 107.029 35.3023V21.8721C107.029 20.407 106.855 18.1395 104.039 18.1395Z" fill="white"/>
<path d="M41.6433 18.1395H49.2907V20.7209H45.6408V39.0349H41.6433V18.1395Z" fill="white"/>
<path d="M49.8818 39.0348H53.8098L54.1922 33.4883H56.0693L56.4516 39.0348H60.3449L58.2592 18.1046H51.9675L49.8818 39.0348ZM54.2965 31.186L54.9917 20.7209H55.235L55.9302 31.186H54.2965Z" fill="white"/>
<path d="M66.0805 31.7093V35.6512C66.0805 36.1744 66.4629 36.3488 66.7062 36.3488C67.0886 36.3488 67.3319 36.0349 67.3319 35.6512V30.8023C67.3319 30.1395 67.2276 29.4419 65.7329 29.4419H64.0991V27.1395H65.7677C66.9148 27.1395 67.3319 26.8605 67.3319 25.6046V21.4186C67.3319 21.0698 67.0886 20.7209 66.7062 20.7209C66.4629 20.7209 66.0805 20.8605 66.0805 21.4186V24.8372H62.083V21.8721C62.083 20.407 62.2568 18.1395 65.0724 18.1395H68.4095C71.2251 18.1395 71.3989 20.407 71.3989 21.8721V25.2209C71.3989 27.4884 69.8694 28.1163 68.6876 28.0465V28.2558C71.3642 28.186 71.3989 30.3488 71.3989 31.0814V35.3023C71.3989 36.7674 71.2251 39.0349 68.4095 39.0349H65.0724C62.2568 39.0349 62.083 36.7674 62.083 35.3023V31.7093H66.0805Z" fill="white"/>
<path d="M73.9712 18.1395H83.2176V39.0349H79.4982V20.7209H77.6906V39.0349H73.9712V18.1395Z" fill="white"/>
<path d="M86.1377 39.0349H90.1352V31.9186H92.4294C95.245 31.9186 95.6622 29.6512 95.6622 28.186V21.8721C95.6622 20.407 95.2103 18.1395 92.4294 18.1395H86.1377V39.0349ZM90.1352 29.6163V20.7209H91.178C91.5952 20.7209 91.908 21.1046 91.908 21.7674V28.6046C91.908 29.2674 91.5952 29.6512 91.178 29.6512H90.1352V29.6163Z" fill="white"/>
<path d="M119.786 18.1395H125V39.0349H121.002V25.9186H120.863L118.778 39.0349H115.58L113.529 25.9186H113.39V39.0349H109.392V18.1395H114.571L117.179 32.8256L119.786 18.1395Z" fill="white"/>
<path d="M33.0922 20.2674C33.0574 22.3954 32.7793 24.6279 32.4665 25.9535C32.5707 23.6512 32.2927 20.407 31.7712 17.8605C31.2498 15.314 29.7551 11.093 28.5385 9.10465C27.4261 10.9884 26.0705 14.6512 25.3752 17.8256C24.6453 21 24.6453 24.8721 24.6453 26.0233C24.4715 25.0465 23.9848 21.593 24.1239 18.1047C24.2281 15.2093 24.8886 12.2791 25.271 10.9186C26.6614 6.38372 28.2604 3.48837 28.5732 3C28.8861 3.45349 30.8675 7.04651 31.9103 10.7791C32.9531 14.5465 33.1617 18.1395 33.0922 20.2674ZM28.608 36.4884C27.9823 35.3023 27.009 33.0698 26.9395 29.6163C26.9047 26.2674 28.2604 23.407 28.6428 22.814C28.9904 23.407 30.1375 25.9186 30.2765 29.3023C30.346 32.6512 29.2337 35.2674 28.608 36.4884ZM33.4745 10.814C32.2231 5.26744 29.0251 0.732558 28.608 0C27.9128 1.04651 25.3752 5.02326 24.0891 9.45349C22.6987 14.407 22.4901 18.7674 22.9767 23.093C23.4634 27.4186 25.271 31.814 25.271 31.814C26.2443 34.1512 27.6695 36.6279 28.608 37.8488C29.9984 36.0349 33.1617 30.6977 34.135 23.6861C34.7259 19.7791 34.7259 16.3954 33.4745 10.814Z" fill="white"/>
<path d="M20.8565 39.0349V45.6279C20.8565 45.6279 20.8565 45.593 20.8913 45.593C23.1855 43.2907 26.9049 43.2907 29.1991 45.593C31.4933 47.8953 31.4933 51.593 29.1991 53.8953L29.1644 53.9302L29.1296 53.9651C26.8354 56.2325 23.846 57.3837 20.8565 57.3837C17.8671 57.3837 14.8429 56.2325 12.5834 53.9651C8.55117 49.9186 8.06452 43.7093 11.1582 39.1395C11.5754 38.5116 12.062 37.9535 12.5834 37.3953C14.8776 35.093 17.8671 33.9767 20.8565 33.9767V18.2791C9.31591 18.2791 0 27.6279 0 39.1395C0 50.6511 9.35067 60 20.8565 60C26.8701 60 32.2928 57.4535 36.0818 53.407V39.1046H20.8565V39.0349Z" fill="white"/>
<path d="M121.246 55.0116C121.246 57 120.342 57.3488 118.048 57.3488H115.962V48.279H118.082V51.7674H118.43C120.516 51.7674 121.28 52.2558 121.28 54.0697V55.0116H121.246ZM103.622 49.9883H102.023V57.3488H100.007V49.9883H98.3035V48.279H103.622V49.9883ZM87.3886 54.1046C87.3886 55.9535 86.4501 56.4418 84.3644 56.4418V57.3488H82.3135V56.4418C80.2279 56.4418 79.2893 55.9535 79.2893 54.1046V51.279C79.2893 49.4302 80.1931 48.9418 82.3135 48.9418V48.279H84.3644V48.9418C86.4848 48.9418 87.3886 49.4302 87.3886 51.279V54.1046ZM68.2006 49.9883H65.3155V51.7674H67.8878V53.4767H65.3155V55.6046H68.2006V57.3139H63.1255V48.2093H68.2006V49.9883ZM50.6811 57.3488H48.5607V53.3721H47.4831V57.3488H45.3975V48.279H47.5179V51.7674H48.5955V48.279H50.7159V57.3488H50.6811ZM125 46.0116H41.6433V59.9651H125V46.0116ZM81.3402 51.2093V54.1046C81.3402 54.6279 81.514 54.7674 81.9659 54.7674H82.3135V50.5465H81.9659C81.4793 50.5465 81.3402 50.686 81.3402 51.2093ZM118.534 53.3721H118.048V55.7442H118.5C118.986 55.7442 119.125 55.6395 119.125 55.1162V54.0349C119.16 53.5116 118.986 53.3721 118.534 53.3721ZM84.6773 50.5465H84.3644V54.7674H84.6773C85.1639 54.7674 85.303 54.6279 85.303 54.1046V51.1744C85.3377 50.6511 85.1639 50.5465 84.6773 50.5465Z" fill="white"/>
<path d="M180.66 29.62C180.407 31.0733 179.813 32.1867 178.88 32.96C177.947 33.7333 176.8 34.12 175.44 34.12C173.92 34.12 172.647 33.62 171.62 32.62C170.967 31.9667 170.56 31.2533 170.4 30.48C170.253 29.6933 170.18 28.4933 170.18 26.88C170.18 25.2667 170.253 24.0733 170.4 23.3C170.56 22.5133 170.967 21.7933 171.62 21.14C172.647 20.14 173.92 19.64 175.44 19.64C176.8 19.64 177.947 20.0267 178.88 20.8C179.813 21.5733 180.407 22.6867 180.66 24.14H177.82C177.5 22.7933 176.707 22.12 175.44 22.12C174.68 22.12 174.087 22.3667 173.66 22.86C173.393 23.1667 173.207 23.5867 173.1 24.12C173.007 24.64 172.96 25.56 172.96 26.88C172.96 28.2 173.007 29.1267 173.1 29.66C173.207 30.18 173.393 30.5933 173.66 30.9C174.087 31.3933 174.68 31.64 175.44 31.64C176.72 31.64 177.52 30.9667 177.84 29.62H180.66ZM190.205 25.88H187.205V34H184.585V25.88H181.525V23.58H190.205V25.88ZM200.606 28.78C200.606 29.86 200.539 30.7467 200.406 31.44C200.272 32.1333 199.979 32.7133 199.526 33.18C198.926 33.8067 198.086 34.12 197.006 34.12C195.926 34.12 195.086 33.7733 194.486 33.08V37.82H191.886V23.58H194.406V24.56C195.059 23.8267 195.926 23.46 197.006 23.46C198.086 23.46 198.926 23.7733 199.526 24.4C199.979 24.8667 200.272 25.4467 200.406 26.14C200.539 26.8333 200.606 27.7133 200.606 28.78ZM197.946 29.98C197.986 29.66 198.006 29.26 198.006 28.78C198.006 28.3 197.986 27.9067 197.946 27.6C197.906 27.28 197.826 26.9733 197.706 26.68C197.599 26.3867 197.419 26.1667 197.166 26.02C196.926 25.8733 196.619 25.8 196.246 25.8C195.872 25.8 195.559 25.8733 195.306 26.02C195.066 26.1667 194.886 26.3867 194.766 26.68C194.659 26.9733 194.586 27.28 194.546 27.6C194.506 27.9067 194.486 28.3 194.486 28.78C194.486 29.26 194.506 29.66 194.546 29.98C194.586 30.2867 194.659 30.5933 194.766 30.9C194.886 31.1933 195.066 31.4133 195.306 31.56C195.559 31.7067 195.872 31.78 196.246 31.78C196.619 31.78 196.926 31.7067 197.166 31.56C197.419 31.4133 197.599 31.1933 197.706 30.9C197.826 30.5933 197.906 30.2867 197.946 29.98ZM211.637 29.6H205.117C205.117 30.2933 205.317 30.8533 205.717 31.28C206.117 31.7067 206.677 31.92 207.397 31.92C207.931 31.92 208.364 31.8467 208.697 31.7C209.044 31.54 209.397 31.2867 209.757 30.94L211.337 32.48C210.777 33.0533 210.197 33.4733 209.597 33.74C209.011 33.9933 208.271 34.12 207.377 34.12C206.711 34.12 206.104 34.04 205.557 33.88C205.024 33.7067 204.524 33.4267 204.057 33.04C203.591 32.6533 203.224 32.1 202.957 31.38C202.691 30.66 202.557 29.7933 202.557 28.78C202.557 27.1133 202.971 25.8133 203.797 24.88C204.624 23.9333 205.724 23.46 207.097 23.46C208.524 23.46 209.637 23.9267 210.437 24.86C211.237 25.78 211.637 26.9933 211.637 28.5V29.6ZM209.077 27.82C209.064 27.3667 208.984 26.9933 208.837 26.7C208.517 25.98 207.937 25.62 207.097 25.62C206.257 25.62 205.677 25.98 205.357 26.7C205.211 26.9933 205.131 27.3667 205.117 27.82H209.077ZM224.654 34H222.054V27.98L220.094 31.84H218.614L216.634 27.98V34H214.014V23.58H216.594L219.354 29.06L222.094 23.58H224.654V34ZM236.449 34H233.829V27.64L230.169 34H227.549V23.58H230.169V29.78L233.829 23.58H236.449V34ZM249.967 34H247.367V27.98L245.407 31.84H243.927L241.947 27.98V34H239.327V23.58H241.907L244.667 29.06L247.407 23.58H249.967V34ZM260.462 32.7C259.555 33.6467 258.409 34.12 257.022 34.12C256.582 34.12 256.155 34.0733 255.742 33.98C255.329 33.8733 254.909 33.7 254.482 33.46C254.069 33.2067 253.709 32.8867 253.402 32.5C253.095 32.1 252.842 31.5867 252.642 30.96C252.455 30.32 252.362 29.5933 252.362 28.78C252.362 27.9667 252.455 27.2467 252.642 26.62C252.842 25.98 253.095 25.4667 253.402 25.08C253.709 24.6933 254.069 24.3733 254.482 24.12C254.909 23.8667 255.329 23.6933 255.742 23.6C256.155 23.5067 256.582 23.46 257.022 23.46C258.422 23.46 259.569 23.9267 260.462 24.86L258.702 26.62C258.195 26.0733 257.635 25.8 257.022 25.8C256.409 25.8 255.915 26.0267 255.542 26.48C255.155 26.96 254.962 27.7267 254.962 28.78C254.962 29.8467 255.155 30.62 255.542 31.1C255.915 31.5533 256.409 31.78 257.022 31.78C257.635 31.78 258.195 31.5067 258.702 30.96L260.462 32.7ZM267.731 28.24V25.66H265.691C265.265 25.66 264.925 25.78 264.671 26.02C264.431 26.2467 264.311 26.56 264.311 26.96C264.311 27.3467 264.431 27.66 264.671 27.9C264.925 28.1267 265.265 28.24 265.691 28.24H267.731ZM264.571 34H261.611L263.711 29.74C263.111 29.5133 262.638 29.1467 262.291 28.64C261.945 28.1333 261.771 27.5333 261.771 26.84C261.771 25.8933 262.091 25.1133 262.731 24.5C263.385 23.8867 264.218 23.58 265.231 23.58H270.291V34H267.691V30.3H266.291L264.571 34ZM173.08 59H170.46V48.58H173.08V59ZM179.8 59H176.68L173.1 53.54L176.52 48.58H179.56L175.88 53.44L179.8 59ZM188.692 56.28C188.972 56.6133 189.385 56.78 189.932 56.78C190.479 56.78 190.899 56.6067 191.192 56.26C191.552 55.82 191.732 55 191.732 53.8C191.732 52.6533 191.559 51.8667 191.212 51.44C190.932 51.0667 190.505 50.88 189.932 50.88C189.359 50.88 188.925 51.06 188.632 51.42C188.285 51.8733 188.112 52.66 188.112 53.78C188.112 55.02 188.305 55.8533 188.692 56.28ZM189.972 59.12C188.252 59.12 187.045 58.58 186.352 57.5C185.792 56.62 185.512 55.0933 185.512 52.92C185.512 51.2667 185.559 50 185.652 49.12C185.759 48.2267 185.919 47.54 186.132 47.06C186.359 46.58 186.705 46.16 187.172 45.8C187.772 45.3333 188.532 45.0267 189.452 44.88C190.385 44.7333 191.712 44.6533 193.432 44.64V46.88C193.232 46.8933 192.885 46.9133 192.392 46.94C191.912 46.9533 191.519 46.9733 191.212 47C190.919 47.0133 190.572 47.06 190.172 47.14C189.785 47.22 189.452 47.3333 189.172 47.48C188.692 47.7333 188.352 48.04 188.152 48.4C187.952 48.76 187.852 49.2533 187.852 49.88C188.052 49.5333 188.392 49.2467 188.872 49.02C189.365 48.7933 189.892 48.68 190.452 48.68C191.532 48.68 192.385 48.96 193.012 49.52C193.892 50.3467 194.332 51.7533 194.332 53.74C194.332 54.7667 194.232 55.6 194.032 56.24C193.832 56.88 193.505 57.44 193.052 57.92C192.292 58.72 191.265 59.12 189.972 59.12ZM205.129 53.78C205.129 54.78 205.042 55.5933 204.869 56.22C204.709 56.8333 204.402 57.3733 203.949 57.84C203.122 58.6933 202.042 59.12 200.709 59.12C199.389 59.12 198.316 58.6933 197.489 57.84C197.036 57.36 196.722 56.8133 196.549 56.2C196.389 55.5733 196.309 54.7667 196.309 53.78C196.309 52.7933 196.389 51.9933 196.549 51.38C196.722 50.7667 197.036 50.22 197.489 49.74C198.316 48.8867 199.389 48.46 200.709 48.46C202.069 48.46 203.149 48.8867 203.949 49.74C204.402 50.22 204.709 50.7667 204.869 51.38C205.042 51.9933 205.129 52.7933 205.129 53.78ZM202.529 53.78C202.529 52.4867 202.329 51.6467 201.929 51.26C201.622 50.9533 201.216 50.8 200.709 50.8C200.216 50.8 199.816 50.9533 199.509 51.26C199.109 51.6467 198.909 52.4867 198.909 53.78C198.909 55.0867 199.109 55.9333 199.509 56.32C199.816 56.6267 200.216 56.78 200.709 56.78C201.216 56.78 201.622 56.6267 201.929 56.32C202.329 55.9333 202.529 55.0867 202.529 53.78ZM215.718 59H213.118V50.88H210.618V53.38C210.618 55.5 210.344 56.9667 209.798 57.78C209.251 58.5933 208.411 59 207.278 59H206.038V56.7H206.358C206.638 56.7 206.858 56.6733 207.018 56.62C207.178 56.5533 207.351 56.4067 207.538 56.18C207.738 55.94 207.878 55.54 207.958 54.98C208.051 54.42 208.098 53.6933 208.098 52.8V48.58H215.718V59ZM226.144 53.26C226.784 53.8733 227.104 54.6733 227.104 55.66C227.104 56.6467 226.777 57.4533 226.124 58.08C225.484 58.6933 224.657 59 223.644 59H218.624V48.58H221.244V52.34H223.644C224.67 52.34 225.504 52.6467 226.144 53.26ZM223.164 54.38H221.164V56.96H223.164C223.577 56.96 223.904 56.8467 224.144 56.62C224.397 56.38 224.524 56.06 224.524 55.66C224.524 55.2733 224.397 54.9667 224.144 54.74C223.904 54.5 223.577 54.38 223.164 54.38ZM242.75 59H229.21V48.58H231.83V56.7H234.69V48.58H237.29V56.7H240.15V48.58H242.75V59ZM254.235 54.6H247.715C247.715 55.2933 247.915 55.8533 248.315 56.28C248.715 56.7067 249.275 56.92 249.995 56.92C250.528 56.92 250.962 56.8467 251.295 56.7C251.642 56.54 251.995 56.2867 252.355 55.94L253.935 57.48C253.375 58.0533 252.795 58.4733 252.195 58.74C251.608 58.9933 250.868 59.12 249.975 59.12C249.308 59.12 248.702 59.04 248.155 58.88C247.622 58.7067 247.122 58.4267 246.655 58.04C246.188 57.6533 245.822 57.1 245.555 56.38C245.288 55.66 245.155 54.7933 245.155 53.78C245.155 52.1133 245.568 50.8133 246.395 49.88C247.222 48.9333 248.322 48.46 249.695 48.46C251.122 48.46 252.235 48.9267 253.035 49.86C253.835 50.78 254.235 51.9933 254.235 53.5V54.6ZM251.675 52.82C251.662 52.3667 251.582 51.9933 251.435 51.7C251.115 50.98 250.535 50.62 249.695 50.62C248.855 50.62 248.275 50.98 247.955 51.7C247.808 51.9933 247.728 52.3667 247.715 52.82H251.675ZM267.252 59H264.652V52.98L262.692 56.84H261.212L259.232 52.98V59H256.612V48.58H259.192L261.952 54.06L264.692 48.58H267.252V59ZM278.409 48.58L273.949 60.68C273.669 61.4267 273.289 61.9667 272.809 62.3C272.343 62.6467 271.716 62.82 270.929 62.82H269.909V60.48H270.509C270.896 60.48 271.176 60.4133 271.349 60.28C271.523 60.16 271.676 59.9133 271.809 59.54L272.249 58.26L268.689 48.58H271.429L273.589 55.02L275.669 48.58H278.409ZM283.952 44.76L283.292 54.54H281.372L280.732 44.76H283.952ZM283.832 59H280.852V56.04H283.832V59Z" fill="white"/>
<line x1="149.5" y1="73" x2="149.5" y2="6" stroke="white"/>
</svg>
