<svg width="281" height="218" viewBox="0 0 281 218" fill="none" xmlns="http://www.w3.org/2000/svg">
<path d="M75 168C74.8 168.2 74.7 168.4 74.5 168.7C61 187.3 39 217.6 39 217.6H113.3C134.6 217.6 153.2 208.3 163 194.6C176.5 176.1 198.5 145.7 198.5 145.7H165C150.3 159.4 128.5 168.1 104.1 168.1H75V168Z" fill="#0079C1"/>
<path d="M263.7 113.9C269.6 105.7 279.3 92.4 279.3 92.4H246.6C237.2 92.4 229 96.5 224.7 102.5C218.8 110.7 209.1 124 209.1 124H241.8C251.2 124 259.4 119.9 263.7 113.9Z" fill="#0079C1"/>
<path d="M286.4 35.5C296.2 22 312.2 0 312.2 0H258.3C242.8 0 229.3 6.7 222.2 16.7C212.4 30.2 196.4 52.2 196.4 52.2H250.3C265.7 52.2 279.2 45.5 286.4 35.5Z" fill="#13B6EA"/>
<path d="M173.7 135.7C192.6 109.7 223.5 67.1 223.5 67.1H119.5C89.6 67.1 63.6 80.1 49.8 99.4C30.9 125.4 0 168 0 168H75C85 154.6 103.3 145.6 124.2 145.6H164.9C168.2 142.6 171.1 139.2 173.7 135.7Z" fill="#13B6EA"/>
<path d="M75 168H104C128.4 168 150.2 159.3 164.9 145.6H124.2C103.3 145.6 84.9 154.6 75 168Z" fill="#00AEEF"/>
</svg>
