<svg width="55" height="45" viewBox="0 0 55 45" fill="none" xmlns="http://www.w3.org/2000/svg">
<path d="M50.6009 9.18367H42.7873L39.1206 0H15.8794L12.2128 9.18367H11V4.59184H5.5V9.18367H4.39908C1.97267 9.18367 0 11.16 0 13.5909V40.5615C0 43.009 1.98733 45 4.43025 45H50.5698C53.0127 45 55 43.009 55 40.5615V13.5909C55 11.16 53.0273 9.18367 50.6009 9.18367ZM7.33333 6.42857H9.16667V9.18367H7.33333V6.42857ZM53.1667 40.5615C53.1667 41.9969 52.0016 43.1633 50.5698 43.1633H4.43025C2.99842 43.1633 1.83333 41.996 1.83333 40.5615V13.5909C1.83333 12.1739 2.98467 11.0204 4.39908 11.0204H5.5H11H13.4539L17.1206 1.83673H37.8794L41.5461 11.0204H50.6009C52.0153 11.0204 53.1667 12.1739 53.1667 13.5909V40.5615Z" fill="#0070BA"/>
<path d="M27.5 8.26538C18.4021 8.26538 11 15.6812 11 24.796C11 33.9108 18.4021 41.3266 27.5 41.3266C36.5979 41.3266 44 33.9108 44 24.796C44 15.6812 36.5979 8.26538 27.5 8.26538ZM27.5 39.4899C19.4132 39.4899 12.8333 32.8978 12.8333 24.796C12.8333 16.6942 19.4132 10.1021 27.5 10.1021C35.5868 10.1021 42.1667 16.6942 42.1667 24.796C42.1667 32.8978 35.5868 39.4899 27.5 39.4899Z" fill="#0070BA"/>
<path d="M27.5 13.7754C21.4344 13.7754 16.5 18.719 16.5 24.7958C16.5 30.8726 21.4344 35.8162 27.5 35.8162C33.5656 35.8162 38.5 30.8726 38.5 24.7958C38.5 18.719 33.5656 13.7754 27.5 13.7754ZM27.5 33.9795C22.4455 33.9795 18.3333 29.8597 18.3333 24.7958C18.3333 19.7319 22.4455 15.6121 27.5 15.6121C32.5545 15.6121 36.6667 19.7319 36.6667 24.7958C36.6667 29.8597 32.5545 33.9795 27.5 33.9795Z" fill="#0070BA"/>
<path d="M47.6667 12.8572C45.6445 12.8572 44 14.5047 44 16.5306C44 18.5566 45.6445 20.2041 47.6667 20.2041C49.6888 20.2041 51.3333 18.5566 51.3333 16.5306C51.3333 14.5047 49.6888 12.8572 47.6667 12.8572ZM47.6667 18.3674C46.6556 18.3674 45.8333 17.5436 45.8333 16.5306C45.8333 15.5177 46.6556 14.6939 47.6667 14.6939C48.6778 14.6939 49.5 15.5177 49.5 16.5306C49.5 17.5436 48.6778 18.3674 47.6667 18.3674Z" fill="#0070BA"/>
</svg>
