<svg width="55" height="65" viewBox="0 0 55 65" fill="none" xmlns="http://www.w3.org/2000/svg">
<path d="M45.4318 45.3645C40.1556 45.3645 35.8635 49.738 35.8635 55.1145C35.8635 60.491 40.1556 64.8645 45.4318 64.8645C50.7081 64.8645 55.0001 60.491 55.0001 55.1145C55.0001 49.738 50.7081 45.3645 45.4318 45.3645ZM45.4318 62.6979C41.3288 62.6979 37.9899 59.2956 37.9899 55.1146C37.9899 50.9337 41.3288 47.5313 45.4318 47.5313C49.5348 47.5313 52.8738 50.9337 52.8738 55.1146C52.8738 59.2956 49.5348 62.6979 45.4318 62.6979Z" fill="#0070BA"/>
<path d="M50.3653 51.032C49.9127 50.6501 49.2441 50.7115 48.8672 51.1707L44.297 56.7598L41.9308 54.3487C41.5155 53.9255 40.8428 53.9255 40.4274 54.3487C40.0122 54.7718 40.0122 55.4574 40.4274 55.8806L43.6168 59.1306C43.8162 59.3348 44.0872 59.448 44.3685 59.448C44.384 59.448 44.4006 59.448 44.4162 59.447C44.7152 59.4333 44.9934 59.2925 45.1855 59.0588L50.5013 52.5588C50.8773 52.0984 50.816 51.415 50.3653 51.032Z" fill="#0070BA"/>
<path d="M45.8428 0H3.32747C1.56556 0 0 1.32031 0 3.11035V61.6189C0 63.4089 1.56257 65 3.32025 65H35.3588C35.9465 65 36.4219 64.5154 36.4219 63.9167C36.4219 63.318 35.9464 62.8334 35.3588 62.8334H3.32025C2.73469 62.8334 2.12633 62.2135 2.12633 61.6189V3.11035C2.12633 2.51583 2.73892 2.16671 3.3276 2.16671H45.843C46.4223 2.16671 46.7784 2.52319 46.7784 3.10616V41.0312C46.7784 41.6301 47.2539 42.1145 47.8415 42.1145C48.4291 42.1145 48.9046 41.63 48.9046 41.0312V3.10616C48.9046 1.3193 47.6048 0 45.8428 0Z" fill="#0070BA"/>
<path d="M29.901 7.5835H19.2696C18.682 7.5835 18.2065 8.06808 18.2065 8.66679C18.2065 9.26562 18.6821 9.75008 19.2696 9.75008H29.901C30.4887 9.75008 30.9641 9.2655 30.9641 8.66679C30.9641 8.06808 30.4886 7.5835 29.901 7.5835Z" fill="#0070BA"/>
<path d="M39.4693 15.1667H9.70129C9.11361 15.1667 8.63818 15.6513 8.63818 16.25C8.63818 16.8489 9.11373 17.3333 9.70129 17.3333H39.4693C40.0569 17.3333 40.5324 16.8487 40.5324 16.25C40.5324 15.6512 40.0568 15.1667 39.4693 15.1667Z" fill="#0070BA"/>
<path d="M39.4693 22.75H9.70129C9.11361 22.75 8.63818 23.2346 8.63818 23.8333C8.63818 24.4321 9.11373 24.9166 9.70129 24.9166H39.4693C40.0569 24.9166 40.5324 24.432 40.5324 23.8333C40.5324 23.2346 40.0568 22.75 39.4693 22.75Z" fill="#0070BA"/>
<path d="M39.4693 30.3333H9.70129C9.11361 30.3333 8.63818 30.8178 8.63818 31.4165C8.63818 32.0154 9.11373 32.4998 9.70129 32.4998H39.4693C40.0569 32.4998 40.5324 32.0153 40.5324 31.4165C40.5324 30.8178 40.0568 30.3333 39.4693 30.3333Z" fill="#0070BA"/>
<path d="M39.4694 37.9167H9.70141C9.11373 37.9167 8.50537 38.2659 8.50537 38.8647V55.1147C8.50537 55.7135 9.11373 56.3335 9.70141 56.3335H33.0905C33.6782 56.3335 34.1536 55.8489 34.1536 55.2502C34.1536 54.6515 33.6781 54.1669 33.0905 54.1669H10.6316V40.0833H38.2734V44.2813C38.2734 44.8801 38.7489 45.3646 39.3365 45.3646C39.9241 45.3646 40.3996 44.88 40.3996 44.2813V38.8646C40.3997 38.2659 40.0569 37.9167 39.4694 37.9167Z" fill="#0070BA"/>
</svg>
