<svg width="49" height="68" viewBox="0 0 49 68" fill="none" xmlns="http://www.w3.org/2000/svg">
<path d="M44.3925 4.69978H35.9479C35.4889 3.33538 34.2029 2.34989 32.691 2.34989H29.1198C28.0359 0.88635 26.3188 0 24.5 0C22.6811 0 20.9641 0.88635 19.8803 2.34989H16.309C14.7971 2.34989 13.5111 3.33538 13.0521 4.69978H4.60746C2.06692 4.69978 0 6.77518 0 9.32613V63.3736C0 65.9246 2.06692 68 4.60746 68H44.3925C46.9331 68 49 65.9246 49 63.3736V9.32613C49 6.77518 46.9331 4.69978 44.3925 4.69978ZM13.0521 11.6026C13.5111 12.967 14.7971 13.9525 16.309 13.9525H32.691C34.2029 13.9525 35.4889 12.967 35.9479 11.6026H42.1254V61.0972H6.87463V11.6026H13.0521ZM16.309 4.55292H20.4685C20.8591 4.55292 21.2202 4.34436 21.4167 4.00539C22.0709 2.87685 23.2235 2.20302 24.5 2.20302C25.7765 2.20302 26.9291 2.87685 27.5832 4.00539C27.7798 4.34436 28.1409 4.55292 28.5313 4.55292H32.691C33.3766 4.55292 33.9343 5.11292 33.9343 5.8013V10.4983C33.9343 10.4993 33.9342 10.5002 33.9342 10.5011C33.9342 10.5015 33.9342 10.502 33.9342 10.5025C33.9334 11.1902 33.376 11.7495 32.6909 11.7495H16.3088C15.6243 11.7495 15.0673 11.1909 15.0657 10.5039C15.0657 10.5028 15.0658 10.502 15.0658 10.5011C15.0658 10.4992 15.0655 10.4973 15.0655 10.4954V5.8013C15.0657 5.11292 15.6234 4.55292 16.309 4.55292ZM46.806 63.3736C46.806 64.7099 45.7233 65.797 44.3925 65.797H4.60746C3.27671 65.797 2.19403 64.7099 2.19403 63.3736V9.32613C2.19403 7.98993 3.27671 6.90281 4.60746 6.90281H12.8716V9.39957H5.77761C5.17162 9.39957 4.6806 9.8926 4.6806 10.5011V62.1987C4.6806 62.8072 5.17162 63.3002 5.77761 63.3002H43.2224C43.8284 63.3002 44.3194 62.8072 44.3194 62.1987V10.5011C44.3194 9.8926 43.8284 9.39957 43.2224 9.39957H36.1284V6.90281H44.3925C45.7233 6.90281 46.806 7.98993 46.806 9.32613V63.3736Z" fill="#FFFFFF"/>
<path d="M24.5001 9.25287C25.1061 9.25287 25.5971 8.75983 25.5971 8.15135V5.80146C25.5971 5.19299 25.1061 4.69995 24.5001 4.69995C23.8941 4.69995 23.4031 5.19299 23.4031 5.80146V8.15135C23.4031 8.75983 23.8941 9.25287 24.5001 9.25287Z" fill="#FFFFFF"/>
<path d="M25.6703 24.5272H32.6912C33.2971 24.5272 33.7882 24.0342 33.7882 23.4257C33.7882 22.8173 33.2971 22.3242 32.6912 22.3242H25.6703C25.0643 22.3242 24.5732 22.8173 24.5732 23.4257C24.5732 24.0342 25.0643 24.5272 25.6703 24.5272Z" fill="#FFFFFF"/>
<path d="M25.6703 29.2267H37.3718C37.9777 29.2267 38.4688 28.7337 38.4688 28.1252C38.4688 27.5167 37.9777 27.0237 37.3718 27.0237H25.6703C25.0643 27.0237 24.5732 27.5167 24.5732 28.1252C24.5732 28.7337 25.0643 29.2267 25.6703 29.2267Z" fill="#FFFFFF"/>
<path d="M14.3631 28.9043C14.5774 29.1193 14.8582 29.2268 15.1389 29.2268C15.4196 29.2268 15.7004 29.1193 15.9147 28.9043L21.7655 23.0295C22.1939 22.5992 22.1939 21.9019 21.7655 21.4717C21.3369 21.0417 20.6424 21.0417 20.214 21.4717L15.1389 26.5676L12.4043 23.8216C11.9757 23.3916 11.2812 23.3916 10.8528 23.8216C10.4244 24.2519 10.4244 24.9492 10.8528 25.3794L14.3631 28.9043Z" fill="#FFFFFF"/>
<path d="M25.6703 36.2765H32.6912C33.2971 36.2765 33.7882 35.7835 33.7882 35.175C33.7882 34.5665 33.2971 34.0735 32.6912 34.0735H25.6703C25.0643 34.0735 24.5732 34.5665 24.5732 35.175C24.5732 35.7835 25.0643 36.2765 25.6703 36.2765Z" fill="#FFFFFF"/>
<path d="M25.6703 40.976H37.3718C37.9777 40.976 38.4688 40.4829 38.4688 39.8745C38.4688 39.266 37.9777 38.7729 37.3718 38.7729H25.6703C25.0643 38.7729 24.5732 39.266 24.5732 39.8745C24.5732 40.4829 25.0643 40.976 25.6703 40.976Z" fill="#FFFFFF"/>
<path d="M14.3631 40.6538C14.5774 40.8688 14.8582 40.9763 15.1389 40.9763C15.4196 40.9763 15.7004 40.8688 15.9147 40.6538L21.7655 34.779C22.1939 34.3487 22.1939 33.6514 21.7655 33.2212C21.3369 32.7912 20.6424 32.7912 20.214 33.2212L15.1389 38.3171L12.4043 35.5711C11.9757 35.1411 11.2812 35.1411 10.8528 35.5711C10.4244 36.0014 10.4244 36.6988 10.8528 37.1289L14.3631 40.6538Z" fill="#FFFFFF"/>
<path d="M25.6703 48.026H32.6912C33.2971 48.026 33.7882 47.533 33.7882 46.9245C33.7882 46.316 33.2971 45.823 32.6912 45.823H25.6703C25.0643 45.823 24.5732 46.316 24.5732 46.9245C24.5732 47.533 25.0643 48.026 25.6703 48.026Z" fill="#FFFFFF"/>
<path d="M25.6703 52.7257H37.3718C37.9777 52.7257 38.4688 52.2327 38.4688 51.6242C38.4688 51.0157 37.9777 50.5227 37.3718 50.5227H25.6703C25.0643 50.5227 24.5732 51.0157 24.5732 51.6242C24.5732 52.2327 25.0643 52.7257 25.6703 52.7257Z" fill="#FFFFFF"/>
<path d="M14.3631 52.403C14.5774 52.618 14.8582 52.7256 15.1389 52.7256C15.4196 52.7256 15.7004 52.618 15.9147 52.403L21.7655 46.5283C22.1939 46.098 22.1939 45.4006 21.7655 44.9705C21.3369 44.5404 20.6424 44.5404 20.214 44.9705L15.1389 50.0664L12.4043 47.3204C11.9757 46.8903 11.2812 46.8903 10.8528 47.3204C10.4244 47.7507 10.4244 48.448 10.8528 48.8782L14.3631 52.403Z" fill="#FFFFFF"/>
</svg>
