<svg width="55" height="59" viewBox="0 0 55 59" fill="none" xmlns="http://www.w3.org/2000/svg">
<path d="M51.8462 11.0252H43.6846C43.675 10.8254 43.5975 10.6352 43.4652 10.4863L34.3619 0.287649C34.1983 0.104776 33.9654 0 33.7214 0H15.5855C13.2272 0.00242536 11.3159 1.92914 11.3135 4.30648V11.0248H3.15377C1.4128 11.0262 0.00192479 12.4484 0 14.2034V47.4747C0.00192479 49.2296 1.4128 50.6519 3.15377 50.6533H18.8687L17.0551 57.2615H13.4144C12.938 57.2615 12.5521 57.6505 12.5521 58.1307C12.5521 58.6105 12.938 59 13.4144 59H41.5856C42.062 59 42.4479 58.6105 42.4479 58.1307C42.4479 57.6505 42.062 57.2615 41.5856 57.2615H37.9449L36.1313 50.6533H51.8462C53.5872 50.6519 54.9981 49.2296 55 47.4747V14.2034C54.9976 12.4489 53.5872 11.0267 51.8462 11.0252ZM53.2754 14.2039V40.0128H43.6866V12.7637H51.8462C52.6349 12.7647 53.2739 13.4089 53.2749 14.2034L53.2754 14.2039ZM34.5832 3.13503L40.2229 9.4536H35.4263C34.961 9.45312 34.5842 9.0733 34.5837 8.60424L34.5832 3.13503ZM15.5855 1.7385H32.8586V8.60424C32.8601 10.0328 34.0087 11.1907 35.4258 11.1921H41.7747L41.9619 11.4012V40.0128H13.0381V4.30648C13.039 2.88861 14.179 1.73996 15.5855 1.7385ZM3.15377 12.7637H11.3135V40.0128H1.7251V14.2034C1.72606 13.4089 2.36509 12.7647 3.15377 12.7637ZM36.1553 57.261H18.8447L20.6583 50.6529H34.3417L36.1553 57.261ZM51.8462 48.9143H3.15377C2.36461 48.9139 1.72558 48.2692 1.72461 47.4742V41.7513H53.2749V47.4747C53.2739 48.2692 52.6349 48.9139 51.8462 48.9143Z" fill="#0070BA"/>
<path d="M17.6882 37.7746H37.312C37.7884 37.7746 38.1743 37.3856 38.1743 36.9054C38.1743 36.4252 37.7884 36.0361 37.312 36.0361H17.6882C17.2118 36.0361 16.8259 36.4252 16.8259 36.9054C16.8259 37.3856 17.2118 37.7746 17.6882 37.7746Z" fill="#0070BA"/>
<path d="M17.6882 33.6389H29.4362C29.9126 33.6389 30.2985 33.2499 30.2985 32.7696C30.2985 32.2894 29.9126 31.9004 29.4362 31.9004H17.6882C17.2118 31.9004 16.8259 32.2894 16.8259 32.7696C16.8259 33.2499 17.2118 33.6389 17.6882 33.6389Z" fill="#0070BA"/>
<path d="M27.5 16.6003C29.9372 16.5974 31.9121 14.6066 31.9149 12.1497V10.6673C31.9149 8.20948 29.9382 6.2168 27.5 6.2168C25.0617 6.2168 23.085 8.20948 23.085 10.6673V12.1497C23.0878 14.6066 25.0627 16.5974 27.5 16.6003ZM24.5632 10.6673C24.5632 9.03265 25.8778 7.70694 27.5 7.70694C29.1221 7.70694 30.4367 9.03265 30.4367 10.6673V12.1497C30.4367 13.7844 29.1221 15.1101 27.5 15.1101C25.8778 15.1101 24.5632 13.7844 24.5632 12.1497V10.6673Z" fill="#0070BA"/>
<path d="M18.8768 27.9484H25.8066L25.7151 28.8022C25.6858 29.0801 25.8123 29.3508 26.0438 29.5046L27.2535 30.3074C27.5028 30.4728 27.8261 30.4713 28.0735 30.303L29.2539 29.4997C29.4805 29.345 29.6042 29.0767 29.5748 28.8022L29.4839 27.9484H36.123C36.531 27.9484 36.8621 27.6147 36.8621 27.2034V21.6449C36.8592 19.0881 34.804 17.0163 32.2681 17.0134H31.2104C30.8986 17.0134 30.6205 17.2109 30.5151 17.5067L28.8631 22.1368L28.7284 20.8761C28.9021 20.7888 29.0349 20.636 29.0979 20.4507L29.8332 18.2785C29.9097 18.051 29.8736 17.8007 29.7355 17.6052C29.5974 17.4097 29.3742 17.2933 29.136 17.2928L26.0727 17.2817C25.8335 17.2807 25.6093 17.3966 25.4702 17.5916C25.3306 17.7871 25.2936 18.0384 25.3701 18.2664L26.1054 20.4497C26.1785 20.6655 26.346 20.8353 26.5591 20.9115L26.4239 22.1732L24.7311 17.5034C24.6247 17.2094 24.3476 17.0139 24.0372 17.0139H22.7327C20.1963 17.0163 18.1406 19.0881 18.1377 21.6449V27.2034C18.1377 27.6152 18.4688 27.9484 18.8768 27.9484ZM27.6548 28.7896L27.2333 28.5102L27.6452 24.6567L28.0576 28.5165L27.6548 28.7896ZM31.7301 18.5036H32.2681C33.9879 18.5055 35.3819 19.9108 35.3838 21.6444V26.4583H29.3246L29.2245 25.526L31.7301 18.5036ZM28.1014 18.7791L27.8694 19.4645H27.3344L27.1024 18.7752L28.1014 18.7791ZM19.6159 21.6449C19.6179 19.9108 21.0119 18.5055 22.7317 18.5036H23.5204L26.0654 25.526L25.9658 26.4583H19.6159V21.6449Z" fill="#0070BA"/>
</svg>
