<svg width="50" height="51" viewBox="0 0 50 51" fill="none" xmlns="http://www.w3.org/2000/svg">
<path d="M49.6948 49.1863L44.3611 43.7459C45.2731 42.5042 45.8334 40.9797 45.8334 39.3125C45.8334 35.2119 42.5619 31.875 38.5417 31.875C34.5215 31.875 31.25 35.2119 31.25 39.3125C31.25 43.4132 34.5215 46.7501 38.5417 46.7501C40.1762 46.7501 41.6708 46.1786 42.8882 45.2484L48.2219 50.6887C48.4253 50.8962 48.6919 51 48.9584 51C49.2249 51 49.4914 50.8962 49.6949 50.6887C50.1017 50.2736 50.1017 49.6013 49.6948 49.1863ZM42.2316 43.0566C42.2282 43.06 42.2235 43.0609 42.2201 43.0644C42.2167 43.0679 42.2158 43.0726 42.2125 43.0761C41.2702 44.0322 39.973 44.625 38.5417 44.625C35.6689 44.625 33.3334 42.2416 33.3334 39.3125C33.3334 36.3834 35.669 34.0001 38.5417 34.0001C41.4143 34.0001 43.75 36.3833 43.75 39.3125C43.75 40.7721 43.169 42.0953 42.2316 43.0566Z" fill="#0070BA"/>
<path d="M29.1667 29.75H30.2084C32.5053 29.75 34.375 27.8439 34.375 25.5V24.4375C34.375 23.6422 34.0777 22.9228 33.6038 22.3638C34.2803 22.2217 34.9301 22.0689 35.5479 21.9027C35.5955 22.5939 35.6608 23.2664 35.6608 24.0048C35.6608 24.4136 35.8907 24.785 36.2509 24.9625C36.8999 25.2801 37.5001 25.858 37.5001 27.9165C37.5001 28.0826 37.4716 28.2797 37.4309 28.4965C37.3231 29.0724 37.6934 29.6296 38.2569 29.7407C38.3241 29.7531 38.3912 29.7594 38.4563 29.7594C38.9446 29.7594 39.382 29.4056 39.4776 28.8972C39.5468 28.5309 39.5834 28.1968 39.5834 27.9166C39.5834 26.492 39.3779 24.5434 37.7381 23.3917C37.7263 22.6531 37.6636 21.9628 37.6054 21.2693C43.1958 19.3291 45.8334 16.4068 45.8334 14.0596C45.8334 10.7264 41.1374 8.79561 36.3996 8.53154C35.9922 5.39982 33.294 0 30.6092 0C29.6428 0 28.5137 0.229301 27.3174 0.471053C25.9522 0.748066 24.4019 1.06253 22.9167 1.06253C21.4315 1.06253 19.8812 0.748166 18.516 0.471053C17.3197 0.229301 16.1906 0 15.2242 0C12.5393 0 9.8412 5.39982 9.43378 8.53134C4.69599 8.79541 0 10.7263 0 14.0595C0 16.4037 2.63125 19.3212 8.20664 21.2614C8.1499 21.9505 8.10683 22.6612 8.09521 23.3916C6.45546 24.5434 6.25 26.4919 6.25 27.9165C6.25 29.7894 7.88574 33.9574 10.2193 34.7242C10.2377 34.773 10.258 34.8238 10.2783 34.8767C11.2854 37.5434 13.9648 44.625 22.9167 44.625C25.1851 44.625 27.2319 44.1539 29.0039 43.2263C29.5145 42.9575 29.718 42.3173 29.4535 41.7954C29.193 41.2724 28.5624 41.069 28.0517 41.3357C26.5767 42.1087 24.8494 42.4999 22.9167 42.4999C15.3931 42.4999 13.1714 36.622 12.2213 34.112C12.0992 33.7904 11.9995 33.5268 11.9141 33.3391C11.7432 32.9624 11.3749 32.7217 10.968 32.7217C9.96083 32.7217 8.3333 29.4875 8.3333 27.9165C8.3333 25.8579 8.93349 25.28 9.58251 24.9625C9.94267 24.7851 10.1726 24.4137 10.1726 24.0048C10.1726 23.2865 10.2041 22.5805 10.25 21.8924C10.8789 22.0624 11.5397 22.2189 12.2296 22.3638C11.7557 22.9228 11.4584 23.6421 11.4584 24.4375V25.5C11.4584 27.8439 13.3281 29.75 15.6251 29.75H16.6668C19.5395 29.75 21.8751 27.3667 21.8751 24.4376V23.5535C21.9789 23.4934 22.2678 23.375 22.9168 23.375C23.5658 23.375 23.8526 23.4934 23.9585 23.5535V24.4376C23.9583 27.3667 26.2939 29.75 29.1667 29.75ZM32.2917 25.5C32.2917 26.6714 31.3578 27.625 30.2084 27.625H29.1667C27.4434 27.625 26.0417 26.1952 26.0417 24.4375C26.0417 23.8513 26.5097 23.3749 27.0834 23.3749H31.25C31.8237 23.3749 32.2917 23.8512 32.2917 24.4375V25.5ZM11.4583 9.2824C11.4583 6.64275 14.2354 2.12507 15.2242 2.12507C15.9851 2.12507 17.0166 2.33464 18.1092 2.55568C19.5699 2.85132 21.226 3.1875 22.9167 3.1875C24.6074 3.1875 26.2635 2.85132 27.7242 2.55558C28.8168 2.33454 29.8482 2.12497 30.6092 2.12497C31.5979 2.12497 34.3751 6.64265 34.3751 9.2823L34.3792 13.9702C34.373 14.0003 33.6182 17 22.9168 17C12.2905 17 11.4707 14.0428 11.4585 14.0428V9.2824H11.4583ZM16.6667 27.625H15.625C14.4755 27.625 13.5417 26.6714 13.5417 25.5V24.4375C13.5417 23.8513 14.0097 23.3749 14.5834 23.3749H18.75C19.3237 23.3749 19.7917 23.8512 19.7917 24.4375C19.7917 26.1952 18.3899 27.625 16.6667 27.625ZM22.9167 21.25C7.2123 21.25 2.0834 15.9021 2.0834 14.0594C2.0834 12.4371 5.44463 10.9405 9.37509 10.6799V14.0427C9.37499 14.8916 10.0281 19.125 22.9167 19.125C35.8053 19.125 36.4584 14.8916 36.4584 14.0428V10.68C40.3887 10.9406 43.75 12.4371 43.75 14.0595C43.75 15.9022 38.621 21.25 22.9167 21.25Z" fill="#0070BA"/>
</svg>
