<svg width="55" height="55" viewBox="0 0 55 55" fill="none" xmlns="http://www.w3.org/2000/svg">
<path d="M55 27.5C55 12.337 42.663 0 27.5 0C12.337 0 0 12.337 0 27.5C0 35.509 3.444 42.728 8.926 47.758L8.9 47.781L9.792 48.533C9.85 48.582 9.913 48.622 9.971 48.67C10.445 49.063 10.936 49.436 11.436 49.797C11.598 49.914 11.76 50.031 11.925 50.145C12.459 50.513 13.007 50.862 13.567 51.193C13.689 51.265 13.812 51.335 13.935 51.405C14.548 51.754 15.174 52.083 15.815 52.385C15.862 52.407 15.91 52.427 15.957 52.449C18.046 53.42 20.276 54.133 22.608 54.554C22.669 54.565 22.73 54.576 22.792 54.587C23.516 54.712 24.248 54.812 24.989 54.879C25.079 54.887 25.169 54.892 25.26 54.9C25.998 54.961 26.744 55 27.5 55C28.249 55 28.988 54.961 29.722 54.902C29.815 54.894 29.908 54.889 30.001 54.881C30.736 54.814 31.462 54.717 32.179 54.594C32.241 54.583 32.304 54.572 32.366 54.56C34.663 54.148 36.861 53.451 38.923 52.505C38.999 52.47 39.076 52.437 39.152 52.401C39.769 52.111 40.372 51.798 40.963 51.465C41.11 51.382 41.256 51.298 41.402 51.212C41.94 50.895 42.469 50.564 42.983 50.212C43.168 50.086 43.349 49.953 43.532 49.821C43.971 49.505 44.402 49.179 44.821 48.838C44.914 48.763 45.014 48.698 45.105 48.621L46.02 47.857L45.993 47.834C51.523 42.802 55 35.55 55 27.5ZM2 27.5C2 13.439 13.439 2 27.5 2C41.561 2 53 13.439 53 27.5C53 35.077 49.675 41.889 44.411 46.563C44.117 46.36 43.821 46.178 43.518 46.026L35.051 41.793C34.291 41.413 33.819 40.649 33.819 39.8V36.843C34.015 36.601 34.222 36.327 34.436 36.026C35.532 34.478 36.411 32.756 37.052 30.903C38.319 30.301 39.137 29.039 39.137 27.614V24.069C39.137 23.202 38.819 22.361 38.25 21.7V17.033C38.302 16.514 38.486 13.585 36.367 11.169C34.524 9.065 31.541 8 27.5 8C23.459 8 20.476 9.065 18.633 11.168C16.514 13.584 16.698 16.513 16.75 17.032V21.699C16.182 22.36 15.863 23.201 15.863 24.068V27.613C15.863 28.714 16.357 29.741 17.203 30.434C18.013 33.607 19.68 36.009 20.296 36.823V39.717C20.296 40.533 19.851 41.283 19.134 41.675L11.227 45.988C10.975 46.125 10.725 46.285 10.475 46.464C5.276 41.792 2 35.022 2 27.5ZM42.459 48.132C42.109 48.386 41.753 48.632 41.392 48.867C41.226 48.975 41.061 49.083 40.892 49.188C40.42 49.48 39.94 49.758 39.45 50.018C39.342 50.075 39.233 50.129 39.124 50.185C37.998 50.762 36.833 51.258 35.636 51.661C35.594 51.675 35.552 51.69 35.509 51.704C34.882 51.912 34.247 52.097 33.605 52.256C33.603 52.256 33.601 52.257 33.599 52.257C32.951 52.417 32.295 52.55 31.635 52.659C31.617 52.662 31.599 52.666 31.581 52.669C30.96 52.77 30.334 52.843 29.706 52.898C29.595 52.908 29.484 52.915 29.372 52.923C28.751 52.97 28.127 53 27.5 53C26.866 53 26.234 52.969 25.605 52.922C25.496 52.914 25.387 52.907 25.279 52.897C24.645 52.841 24.014 52.766 23.389 52.664C23.361 52.659 23.333 52.654 23.305 52.649C21.983 52.428 20.682 52.103 19.415 51.678C19.376 51.665 19.336 51.651 19.297 51.638C18.668 51.424 18.046 51.187 17.435 50.925C17.431 50.923 17.426 50.921 17.422 50.919C16.844 50.67 16.277 50.394 15.717 50.103C15.644 50.065 15.57 50.029 15.498 49.99C14.987 49.717 14.487 49.422 13.994 49.114C13.848 49.022 13.703 48.929 13.559 48.835C13.105 48.538 12.657 48.229 12.221 47.902C12.176 47.868 12.133 47.832 12.088 47.798C12.12 47.78 12.152 47.762 12.184 47.744L20.091 43.431C21.451 42.689 22.296 41.266 22.296 39.717L22.295 36.115L22.065 35.837C22.043 35.812 19.881 33.182 19.064 29.621L18.973 29.225L18.632 29.004C18.151 28.693 17.863 28.173 17.863 27.612V24.067C17.863 23.602 18.06 23.169 18.42 22.844L18.75 22.546V16.976L18.741 16.845C18.738 16.821 18.443 14.416 20.137 12.485C21.583 10.837 24.061 10 27.5 10C30.926 10 33.396 10.83 34.846 12.466C36.538 14.377 36.261 16.827 36.259 16.847L36.25 22.548L36.58 22.846C36.939 23.17 37.137 23.604 37.137 24.069V27.614C37.137 28.327 36.652 28.974 35.956 29.189L35.459 29.342L35.299 29.837C34.709 31.67 33.869 33.363 32.803 34.869C32.541 35.239 32.286 35.567 32.067 35.818L31.819 36.101V39.8C31.819 41.412 32.715 42.862 34.157 43.582L42.624 47.815C42.678 47.842 42.731 47.87 42.784 47.898C42.677 47.979 42.567 48.054 42.459 48.132Z" fill="#0070BA"/>
</svg>
