<svg width="55" height="35" viewBox="0 0 55 35" fill="none" xmlns="http://www.w3.org/2000/svg">
<path d="M36.9763 19.7173L32.2946 17.648C31.9639 17.5019 31.7503 17.1749 31.7503 16.8151V15.5366C33.323 14.2904 34.3338 12.3715 34.3338 10.221V8.42132C34.8519 8.13662 35.1949 7.58646 35.1949 6.97028V6.79562C35.1949 3.04854 32.1294 0 28.3615 0H26.6393C22.8713 0 19.8058 3.04854 19.8058 6.79562V8.3804C19.8058 8.92202 20.0402 9.41268 20.4487 9.72664C20.518 9.77984 20.591 9.82663 20.6669 9.86712V10.2209C20.6669 12.3714 21.6777 14.2903 23.2502 15.5363V16.815C23.2502 17.1748 23.0365 17.5018 22.7059 17.6479L18.0242 19.7172C16.491 20.3948 15.5002 21.9109 15.5002 23.5794V34.1985C15.5002 34.641 15.861 34.9997 16.3059 34.9997C16.7509 34.9997 17.1116 34.641 17.1116 34.1985V23.5795C17.1116 23.4867 17.1182 23.3949 17.1279 23.3039L19.2852 25.4492C19.6208 25.7831 19.8058 26.227 19.8058 26.6993V34.1986C19.8058 34.6411 20.1666 34.9998 20.6115 34.9998C21.0564 34.9998 21.4172 34.6411 21.4172 34.1986V26.6993C21.4172 25.7991 21.0647 24.9528 20.4246 24.3162L17.8528 21.7585C18.0845 21.5194 18.3625 21.3213 18.6788 21.1814L23.2815 19.1471L26.6948 22.5416V34.1985C26.6948 34.641 27.0555 34.9997 27.5005 34.9997C27.9454 34.9997 28.3061 34.641 28.3061 34.1985V22.5417L31.7195 19.1472L36.3221 21.1814C36.6383 21.3213 36.9163 21.5194 37.148 21.7586L34.5763 24.3162C33.9361 24.9528 33.5837 25.7991 33.5837 26.6993V34.1986C33.5837 34.6411 33.9444 34.9998 34.3893 34.9998C34.8343 34.9998 35.195 34.6411 35.195 34.1986V26.6993C35.195 26.2271 35.3799 25.7831 35.7157 25.4492L37.8728 23.304C37.8825 23.395 37.8892 23.4866 37.8892 23.5794V34.1985C37.8892 34.641 38.2499 34.9997 38.6948 34.9997C39.1398 34.9997 39.5005 34.641 39.5005 34.1985V23.5795C39.5002 21.911 38.5095 20.3949 36.9763 19.7173ZM27.5001 21.0767L24.5051 18.0982C24.7328 17.7171 24.8614 17.2762 24.8614 16.8151V16.489C25.6739 16.8285 26.5654 17.0167 27.5003 17.0167C28.4352 17.0167 29.3265 16.8286 30.1389 16.4891V16.8151C30.1389 17.2764 30.2674 17.7171 30.4953 18.0983L27.5001 21.0767ZM27.5003 15.4141C24.6208 15.4142 22.2781 13.0846 22.2781 10.221V9.86071C22.7809 9.66255 23.2716 9.34719 23.7413 8.91614C24.0682 8.61607 24.0887 8.10917 23.7869 7.78399C23.4851 7.45891 22.9755 7.4385 22.6484 7.73858C22.2455 8.10853 21.8429 8.3475 21.4521 8.44899C21.4426 8.45144 21.4356 8.45251 21.4307 8.45294C21.4249 8.44172 21.4171 8.41822 21.4171 8.38051V6.79572C21.4171 3.93221 23.7597 1.60252 26.6392 1.60252H28.3614C31.2409 1.60252 33.5835 3.93221 33.5835 6.79572V6.97039C33.5835 6.99635 33.5678 7.01889 33.5472 7.02295C28.7227 7.97051 26.3029 6.18467 25.4865 5.37278C25.1719 5.05988 24.6617 5.05988 24.3472 5.37278C24.0326 5.68568 24.0326 6.193 24.3472 6.50579C26.8491 8.99381 30.4998 9.03867 32.7224 8.7731V10.2209C32.7224 13.0844 30.3797 15.4141 27.5003 15.4141Z" fill="#0070BA"/>
<path d="M14.528 15.3593V13.6463C14.528 11.5562 13.4357 9.71616 11.7899 8.65729C11.8915 8.33306 11.9446 7.99346 11.9446 7.65193C11.9446 5.79356 10.4243 4.28174 8.55563 4.28174C6.68692 4.28174 5.16668 5.79367 5.16668 7.65193C5.16668 7.99773 5.21932 8.33403 5.32115 8.6575C3.67545 9.71627 2.58329 11.5563 2.58329 13.6463V15.359C2.58329 17.3831 3.60734 19.1728 5.16657 20.2456V22.0075C5.16657 22.355 4.97246 22.6674 4.65997 22.8228L1.87333 24.2084C0.717794 24.7831 0 25.9381 0 27.2229V34.1987C0 34.6412 0.360723 34.9999 0.805666 34.9999C1.25061 34.9999 1.61133 34.6412 1.61133 34.1987V27.5695L2.92381 28.8747C3.25951 29.2087 3.44449 29.6525 3.44449 30.1248V34.1987C3.44449 34.6412 3.80521 34.9999 4.25015 34.9999C4.6951 34.9999 5.05582 34.6412 5.05582 34.1987V30.1248C5.05582 29.2246 4.70326 28.3783 4.06324 27.7417L2.23653 25.9251C2.22772 25.9163 2.21827 25.9087 2.20924 25.9005C2.32386 25.7999 2.45245 25.7123 2.59403 25.6418L5.38066 24.2562C5.52343 24.1852 5.65631 24.1013 5.78017 24.0082L7.74997 25.9672V34.1988C7.74997 34.6413 8.11069 35 8.55563 35C9.00057 35 9.3613 34.6413 9.3613 34.1988V25.9671L11.3312 24.0081C11.4552 24.1013 11.5879 24.1852 11.7307 24.2561L12.4991 24.6383C12.6148 24.6958 12.7377 24.7231 12.8589 24.7231C13.1544 24.7231 13.4389 24.5607 13.5801 24.2801C13.7791 23.8843 13.6178 23.403 13.2198 23.2052L12.4514 22.823C12.1388 22.6676 11.9447 22.3552 11.9447 22.0078V20.2459C13.5039 19.1732 14.528 17.3833 14.528 15.3593ZM8.55563 5.88415C9.53586 5.88415 10.3333 6.67724 10.3333 7.65193C10.3333 7.75929 10.3236 7.86452 10.3051 7.96761C9.75145 7.79861 9.16418 7.70705 8.55563 7.70705C7.94794 7.70705 7.36142 7.79829 6.80863 7.96686C6.79004 7.86377 6.77801 7.75908 6.77801 7.65193C6.77801 6.67713 7.57541 5.88415 8.55563 5.88415ZM8.55563 9.30957C10.9603 9.30957 12.9166 11.2551 12.9166 13.6465V13.9368C9.56239 14.9581 7.56337 12.4206 7.47797 12.3094C7.33779 12.1236 7.12348 12.0074 6.89059 11.9909C6.6577 11.9747 6.42889 12.0594 6.26378 12.2236C5.49475 12.9884 4.7415 13.3573 4.19752 13.5353C4.25714 11.1952 6.18848 9.30957 8.55563 9.30957ZM8.55563 24.502L6.6939 22.6506C6.74826 22.444 6.77801 22.2287 6.77801 22.0076V21.0296C7.33972 21.2042 7.93688 21.2983 8.55563 21.2983C9.17438 21.2983 9.77154 21.2042 10.3333 21.0296V22.0076C10.3333 22.2287 10.363 22.4441 10.4174 22.6506L8.55563 24.502ZM8.55563 19.6959C6.15099 19.6959 4.19462 17.7503 4.19462 15.359V15.193C4.83711 15.0462 5.78973 14.7051 6.78349 13.9103C7.13508 14.2402 7.6376 14.6449 8.27752 14.9919C9.03441 15.4025 10.0797 15.7823 11.3566 15.7823C11.8418 15.7823 12.361 15.7262 12.9098 15.5973C12.7848 17.8783 10.8798 19.6959 8.55563 19.6959Z" fill="#0070BA"/>
<path d="M53.1268 22.4957L48.618 20.2537C48.3055 20.0983 48.1114 19.7859 48.1114 19.4385V18.303C49.1668 17.3712 49.8336 16.0132 49.8336 14.5027V13.5907C49.8522 13.5907 49.8704 13.5912 49.889 13.5912C50.334 13.5912 50.6947 13.2325 50.6947 12.79V11.0773C50.6947 8.27462 48.4018 5.99438 45.5834 5.99438H43.8612C41.0429 5.99438 38.75 8.27462 38.75 11.0773V12.79C38.75 13.2325 39.1107 13.5912 39.5557 13.5912C39.5623 13.5912 39.5817 13.591 39.6111 13.5898V14.5027C39.6111 16.0133 40.278 17.3713 41.3334 18.3032V19.4386C41.3334 19.7861 41.1393 20.0985 40.8267 20.2538C40.4287 20.4517 40.2673 20.9329 40.4664 21.3287C40.6075 21.6095 40.8921 21.7718 41.1876 21.7718C41.3087 21.7718 41.4316 21.7446 41.5473 21.6871C41.69 21.6161 41.8229 21.5322 41.9468 21.4391L43.9167 23.3981V34.1987C43.9167 34.6411 44.2774 34.9999 44.7223 34.9999C45.1673 34.9999 45.528 34.6411 45.528 34.1987V23.3979L47.4978 21.4389C47.6218 21.5321 47.7545 21.616 47.8973 21.6869L52.2603 23.8564L50.9369 25.1724C50.2969 25.809 49.9443 26.6552 49.9443 27.5555V34.1984C49.9443 34.6409 50.3051 34.9996 50.75 34.9996C51.195 34.9996 51.5557 34.6409 51.5557 34.1984V27.5555C51.5557 27.0833 51.7406 26.6393 52.0764 26.3054L53.3299 25.0588C53.3679 25.2038 53.3887 25.3549 53.3887 25.5101V34.1984C53.3887 34.6409 53.7495 34.9996 54.1944 34.9996C54.6393 34.9996 55.0001 34.6409 55.0001 34.1984V25.5101C55.0002 24.2253 54.2824 23.0703 53.1268 22.4957ZM40.3612 11.824V11.0772H40.3613C40.3613 9.15808 41.9314 7.59669 43.8612 7.59669H45.5834C47.5133 7.59669 49.0834 9.15808 49.0834 11.0772V11.9672C45.5811 11.7793 43.4675 10.424 43.447 10.4106C43.3107 10.3203 43.1552 10.276 43.0004 10.276C42.7924 10.276 42.5861 10.3559 42.4304 10.5107C41.6595 11.2773 40.9042 11.6463 40.3612 11.824ZM44.7223 21.9329L42.8606 20.0815C42.915 19.8749 42.9447 19.6595 42.9447 19.4385V19.2679C43.4986 19.4729 44.0975 19.5855 44.7223 19.5855C45.3472 19.5855 45.9461 19.4729 46.5 19.2679V19.4385C46.5 19.6595 46.5296 19.8749 46.5841 20.0815L44.7223 21.9329ZM44.7223 17.9832C42.7925 17.9832 41.2224 16.4219 41.2224 14.5027V13.211C41.7867 12.9868 42.4441 12.6303 43.1132 12.0635C43.9592 12.5012 45.7293 13.2579 48.2223 13.5079V14.5027C48.2223 16.4218 46.6522 17.9832 44.7223 17.9832Z" fill="#0070BA"/>
</svg>
