<svg width="40" height="60" viewBox="0 0 40 60" fill="none" xmlns="http://www.w3.org/2000/svg">
<path d="M39.1305 48.6144C38.6504 48.6144 38.2612 49.0079 38.2612 49.4933V57.7567C38.2612 58.0242 38.0458 58.242 37.7812 58.242H33.1083V40.9337C33.1083 40.4483 32.7191 40.0548 32.239 40.0548C31.7589 40.0548 31.3697 40.4483 31.3697 40.9337V58.2421H21.9599L24.6887 55.2069C24.9868 54.8753 25.1274 54.4029 25.0647 53.9428C25.0635 53.9339 25.0621 53.925 25.0606 53.9161L22.4617 38.3926L23.1618 37.3269C23.549 37.6049 23.8472 37.8725 24.4064 37.8725C24.9753 37.8725 25.5072 37.5506 25.7689 37.0207V37.0206L28.5101 31.4659L34.7546 33.911C34.9805 34.009 38.261 35.5027 38.261 39.4467V45.3916C38.2608 45.8769 38.65 46.2705 39.1302 46.2705C39.6103 46.2705 39.9995 45.877 39.9995 45.3916V39.4467C39.9995 34.2502 35.5987 32.3612 35.4114 32.2833C35.406 32.2809 35.4004 32.2787 35.3948 32.2766L25.0018 28.2071V25.7427C26.6526 24.4447 27.7971 22.5206 28.0845 20.3255C28.9075 20.2669 29.6712 19.9561 30.2949 19.4139C31.1094 18.7057 31.5767 17.675 31.5767 16.5866C31.5767 15.6833 31.2544 14.8208 30.6799 14.1488V10.8929C30.6798 4.8866 25.8468 0 19.9062 0C13.9656 0 9.13253 4.8866 9.13253 10.8929V14.2341C8.55196 14.8993 8.23624 15.7182 8.23624 16.5865C8.23624 17.6753 8.70334 18.7058 9.51803 19.4141C10.1413 19.9561 10.9045 20.2665 11.7273 20.3252C12.017 22.5615 13.1949 24.5573 14.9862 25.8728V28.2071L4.60446 32.2765C4.59901 32.2786 4.59356 32.2808 4.58812 32.283C4.4007 32.361 0 34.2499 0 39.4465V57.7564C0 58.9934 0.995279 59.9996 2.21866 59.9996H10.5009C10.981 59.9996 11.3702 59.6061 11.3702 59.1207C11.3702 58.6354 10.981 58.2418 10.5009 58.2418H8.63055V40.9337C8.63055 40.4483 8.24134 40.0548 7.76126 40.0548C7.28118 40.0548 6.89197 40.4483 6.89197 40.9337V58.2421H2.21878C1.95416 58.2421 1.73881 58.0243 1.73881 57.7568V39.4466C1.73881 35.4893 5.04131 33.999 5.24414 33.9114L11.4838 31.4657L14.2252 37.0206C14.4875 37.5518 15.0201 37.8725 15.5878 37.8725C16.1442 37.8725 16.4396 37.609 16.8324 37.3269L17.5325 38.3926L14.9338 53.9162C14.9323 53.925 14.931 53.9338 14.9298 53.9427C14.867 54.4025 15.0075 54.8752 15.3058 55.207L18.0345 58.2422H14.558C14.0779 58.2422 13.6887 58.6357 13.6887 59.1211C13.6887 59.6065 14.0779 60 14.558 60H37.7813C39.0047 60 40 58.9936 40 57.7568V49.4934C39.9998 49.0079 39.6106 48.6144 39.1305 48.6144ZM26.8817 30.8284L24.3261 36.0069C24.2626 35.9613 22.9082 34.9884 21.2526 33.7998C21.971 32.9032 21.1306 33.952 24.4093 29.8603L26.8817 30.8284ZM21.7434 36.3086L21.0806 37.3172H18.9129L18.2501 36.3086L19.9968 35.0543L21.7434 36.3086ZM16.7247 28.4907V26.8459C17.7808 27.2763 18.9095 27.4759 20.0118 27.4759C21.1515 27.4759 22.2691 27.2303 23.2631 26.7908V28.4979L19.9968 32.5743L16.7247 28.4907ZM29.838 16.5866C29.8379 17.1623 29.5912 17.7071 29.1612 18.0811C28.8769 18.3284 28.5335 18.4864 28.1574 18.5483V14.6252C29.1565 14.7893 29.838 15.6272 29.838 16.5866ZM11.6554 18.5483C10.645 18.3825 9.97482 17.5378 9.97482 16.5865C9.97482 15.6469 10.7452 14.8821 11.6554 14.6694V18.5483ZM11.7022 12.8784C11.4253 12.9105 11.1079 12.9864 10.8713 13.0677V10.8929C10.8713 5.85586 14.9243 1.75793 19.9063 1.75793C24.8883 1.75793 28.9412 5.85586 28.9412 10.8929V13.0073C28.6886 12.9296 28.4265 12.8783 28.1575 12.8542C28.1575 12.0061 28.1648 12.1697 25.4207 9.18691C24.9161 8.63871 24.0813 8.52387 23.446 8.94352C20.4174 10.9438 16.7229 11.9487 13.3142 11.7012C12.5665 11.6446 11.8854 12.1425 11.7022 12.8784ZM13.3941 19.2403V13.7569V13.468C17.1466 13.6902 21.0808 12.5631 24.259 10.5052C25.5175 11.8713 26.199 12.5879 26.4188 12.8605C26.4188 13.55 26.4188 18.4509 26.4188 19.2402C26.4188 22.8082 23.5413 25.7179 20.0119 25.7179C16.0486 25.718 13.3941 22.6095 13.3941 19.2403ZM15.6676 36.0069L13.112 30.8284L15.58 29.862L18.7374 33.8024C17.1317 34.9552 15.8133 35.9023 15.6676 36.0069ZM16.665 54.1057L19.1812 39.0749H20.8121L23.3283 54.1057L19.9967 57.8115L16.665 54.1057Z" fill="#FFFFFF"/>
</svg>
