<svg width="33" height="27" viewBox="0 0 33 27" fill="none" xmlns="http://www.w3.org/2000/svg">
<path d="M0.500012 13.4658L32.135 13.4658C32.411 13.4658 32.635 13.6898 32.635 13.9658C32.635 14.2418 32.411 14.4658 32.135 14.4658L0.500011 14.4658C0.22401 14.4658 1.14637e-05 14.2418 1.14878e-05 13.9658C1.15119e-05 13.6898 0.224011 13.4658 0.500012 13.4658Z" fill="black"/>
<path d="M13.0371 0.929748C13.1651 0.929749 13.2931 0.978748 13.3911 1.07575C13.5861 1.27075 13.5861 1.58775 13.3911 1.78275L1.2071 13.9667L13.3911 26.1467C13.5861 26.3417 13.5861 26.6588 13.3911 26.8537C13.1961 27.0487 12.8791 27.0487 12.6841 26.8537L0.147105 14.3207C0.0531055 14.2267 0.00110548 14.0997 0.00110549 13.9667C0.00110551 13.8337 0.054105 13.7067 0.147105 13.6127L12.6841 1.07675C12.7811 0.97875 12.9091 0.929748 13.0371 0.929748Z" fill="black"/>
</svg>
