<svg width="33" height="27" viewBox="0 0 33 27" fill="none" xmlns="http://www.w3.org/2000/svg">
<path d="M32.135 13.5342H0.5C0.224 13.5342 0 13.3102 0 13.0342C0 12.7582 0.224 12.5342 0.5 12.5342H32.135C32.411 12.5342 32.635 12.7582 32.635 13.0342C32.635 13.3102 32.411 13.5342 32.135 13.5342Z" fill="#2E2E2E"/>
<path d="M19.5979 26.0703C19.4699 26.0703 19.3419 26.0213 19.2439 25.9243C19.0489 25.7293 19.0489 25.4123 19.2439 25.2173L31.4279 13.0332L19.2439 0.85325C19.0489 0.65825 19.0489 0.34125 19.2439 0.14625C19.4389 -0.04875 19.7559 -0.04875 19.9509 0.14625L32.4879 12.6792C32.5819 12.7732 32.6339 12.9002 32.6339 13.0332C32.6339 13.1663 32.5809 13.2933 32.4879 13.3872L19.9509 25.9233C19.8539 26.0212 19.7259 26.0703 19.5979 26.0703Z" fill="#2E2E2E"/>
</svg>
