<svg width="15" height="13" viewBox="0 0 15 13" fill="none" xmlns="http://www.w3.org/2000/svg">
<path d="M4.29282 5.265L3.27419 6.175L6.54837 9.1L13.8243 2.6L12.8057 1.69L6.54837 7.28L4.29282 5.265ZM13.0967 6.5C13.0967 9.36 10.4774 11.7 7.27597 11.7C4.07454 11.7 1.45519 9.36 1.45519 6.5C1.45519 3.64 4.07454 1.3 7.27597 1.3C7.85805 1.3 8.36736 1.365 8.87668 1.495L10.0409 0.455C9.16772 0.195 8.22184 0 7.27597 0C3.27419 0 0 2.925 0 6.5C0 10.075 3.27419 13 7.27597 13C11.2778 13 14.5519 10.075 14.5519 6.5H13.0967Z" fill="#0079C1"/>
</svg>
