<svg width="67" height="47" viewBox="0 0 67 47" fill="none" xmlns="http://www.w3.org/2000/svg">
<path d="M16.0954 36.2867C16.0525 36.3299 16.0311 36.3731 15.9881 36.4379C13.091 40.4554 8.36963 47 8.36963 47H24.3149C28.886 47 32.8776 44.9912 34.9808 42.0321C37.878 38.0363 42.5993 31.4701 42.5993 31.4701H35.41C32.2553 34.4292 27.5769 36.3083 22.3405 36.3083H16.0954V36.2867Z" fill="#0079C1"/>
<path d="M56.5915 24.6016C57.8577 22.8305 59.9394 19.9578 59.9394 19.9578H52.9218C50.9045 19.9578 49.1447 20.8433 48.2219 22.1393C46.9557 23.9104 44.874 26.7831 44.874 26.7831H51.8916C53.9089 26.7831 55.6687 25.8976 56.5915 24.6016Z" fill="#0079C1"/>
<path d="M61.4632 7.66774C63.5664 4.75184 67.0001 0 67.0001 0H55.4328C52.1064 0 49.2092 1.44715 47.6855 3.60708C45.5824 6.52298 42.1487 11.2748 42.1487 11.2748H53.716C57.0209 11.2748 59.9181 9.82767 61.4632 7.66774Z" fill="#13B6EA"/>
<path d="M37.2771 29.3103C41.3331 23.6945 47.9645 14.4932 47.9645 14.4932H25.6454C19.2287 14.4932 13.6489 17.3011 10.6874 21.4697C6.63133 27.0855 0 36.2868 0 36.2868H16.0955C18.2415 33.3925 22.1688 31.4486 26.6541 31.4486H35.3885C36.0967 30.8006 36.7191 30.0662 37.2771 29.3103Z" fill="#13B6EA"/>
<path d="M16.0955 36.2867H22.319C27.5554 36.2867 32.2338 34.4076 35.3885 31.4485H26.6541C22.1688 31.4485 18.2201 33.3924 16.0955 36.2867Z" fill="#00AEEF"/>
</svg>
