<svg xmlns="http://www.w3.org/2000/svg" xmlns:xlink="http://www.w3.org/1999/xlink"><defs><style>
    .sprite-symbol-usage {display: none;}
    .sprite-symbol-usage:target {display: inline;}
  </style><symbol viewBox="0 0 185 35" id="MC_logo"><defs><path id="MC_logo_a" d="M-.5 0H185v32.5H-.5z" /></defs><clipPath id="MC_logo_b"><use xlink:href="#MC_logo_a" overflow="visible" /></clipPath><path clip-path="url(#MC_logo_b)" fill="#231F20" d="M80.1 21.7V15c0-2.6-1.6-4.3-4.3-4.3-1.4 0-2.8.4-3.8 1.9-.7-1.2-1.9-1.9-3.6-1.9-1.2 0-2.3.3-3.2 1.6V11h-2.4v10.8h2.4v-6c0-1.9 1-2.9 2.6-2.9s2.4 1 2.4 2.9v6h2.4v-6c0-1.9 1.1-2.9 2.6-2.9 1.6 0 2.4 1 2.4 2.9v6h2.5zm35.1-10.8h-3.8V7.6H109v3.3h-2.2V13h2.2v5c0 2.5 1 4 3.8 4 1 0 2.2-.3 2.9-.8l-.7-2c-.7.4-1.5.6-2.1.6-1.2 0-1.6-.7-1.6-1.8v-4.9h3.8v-2.2zm20.1-.2c-1.4 0-2.2.6-2.9 1.6V11h-2.3v10.8h2.4v-6.1c0-1.8.8-2.8 2.3-2.8.5 0 1 .1 1.5.3l.7-2.2c-.5-.3-1.2-.3-1.7-.3M105 11.8c-1.1-.7-2.7-1.1-4.4-1.1-2.7 0-4.5 1.3-4.5 3.5 0 1.8 1.3 2.9 3.7 3.2l1.1.2c1.3.2 1.9.5 1.9 1.1 0 .8-.9 1.3-2.5 1.3s-2.8-.5-3.6-1.1l-1.1 1.8c1.3 1 2.9 1.4 4.7 1.4 3.1 0 4.9-1.5 4.9-3.5 0-1.9-1.4-2.9-3.8-3.2l-1.1-.2c-1-.1-1.8-.3-1.8-1.1s.8-1.3 2.1-1.3c1.4 0 2.7.5 3.4.9l1-1.9zm63-1.1c-1.4 0-2.2.6-2.9 1.6V11h-2.3v10.8h2.4v-6.1c0-1.8.8-2.8 2.3-2.8.5 0 1 .1 1.5.3l.7-2.2c-.5-.3-1.2-.3-1.7-.3m-30.3 5.6c0 3.3 2.3 5.7 5.8 5.7 1.6 0 2.7-.4 3.9-1.3l-1.1-1.9c-.9.6-1.8 1-2.8 1-1.9 0-3.3-1.4-3.3-3.5s1.4-3.4 3.3-3.5c1 0 1.9.3 2.8 1l1.1-1.9c-1.2-.9-2.3-1.3-3.9-1.3-3.5.1-5.8 2.5-5.8 5.7m22 0v-5.4h-2.4v1.3c-.7-1-1.9-1.6-3.4-1.6-3 0-5.4 2.4-5.4 5.7 0 3.3 2.4 5.7 5.4 5.7 1.5 0 2.7-.6 3.4-1.6v1.3h2.4v-5.4zm-8.7 0c0-1.9 1.2-3.5 3.3-3.5 1.9 0 3.3 1.5 3.3 3.5s-1.3 3.5-3.3 3.5c-2.1 0-3.3-1.6-3.3-3.5m-28.4-5.6c-3.2 0-5.4 2.3-5.4 5.7 0 3.4 2.3 5.7 5.5 5.7 1.6 0 3.1-.4 4.4-1.5l-1.2-1.7c-.9.7-2.1 1.1-3.1 1.1-1.5 0-2.9-.7-3.2-2.6h8v-.9c.1-3.5-2-5.8-5-5.8m-.1 2.1c1.5 0 2.5 1 2.7 2.6h-5.6c.3-1.6 1.2-2.6 2.9-2.6m59.1 3.5V6.6h-2.4v5.7c-.7-1-1.9-1.6-3.4-1.6-3 0-5.4 2.4-5.4 5.7 0 3.3 2.4 5.7 5.4 5.7 1.5 0 2.7-.6 3.4-1.6v1.3h2.4v-5.5zm2.7 4.4c.1 0 .2 0 .3.1.1 0 .2.1.2.1.1.1.1.1.1.2s.1.2.1.3c0 .1 0 .2-.1.3 0 .1-.1.2-.1.2-.1.1-.1.1-.2.1s-.2.1-.3.1c-.1 0-.2 0-.3-.1-.1 0-.2-.1-.2-.1-.1-.1-.1-.1-.1-.2s-.1-.2-.1-.3c0-.1 0-.2.1-.3 0-.1.1-.2.1-.2.1-.1.1-.1.2-.1s.2-.1.3-.1m0 1.3h.2c.1 0 .1-.1.2-.1 0 0 .1-.1.1-.2v-.2-.2c0-.1-.1-.1-.1-.2 0 0-.1-.1-.2-.1h-.4c-.1 0-.1.1-.2.1 0 0-.1.1-.1.2v.4c0 .1.1.1.1.2 0 0 .1.1.2.1h.2m0-.9c.1 0 .1 0 .2.1l.1.1c0 .1 0 .1-.1.1 0 0-.1.1-.2.1l.2.2h-.2l-.2-.2h-.1v.2-.6h.3zm-.1.1v.2H184.5v-.1-.1H184.2zm-11.4-4.9c0-1.9 1.2-3.5 3.3-3.5 1.9 0 3.3 1.5 3.3 3.5s-1.3 3.5-3.3 3.5c-2.1 0-3.3-1.6-3.3-3.5m-79.5 0v-5.4H91v1.3c-.7-1-1.9-1.6-3.4-1.6-3 0-5.4 2.4-5.4 5.7 0 3.3 2.4 5.7 5.4 5.7 1.5 0 2.7-.6 3.4-1.6v1.3h2.4v-5.4zm-8.7 0c0-1.9 1.2-3.5 3.3-3.5 1.9 0 3.3 1.5 3.3 3.5s-1.3 3.5-3.3 3.5c-2.1 0-3.3-1.6-3.3-3.5" /><path clip-path="url(#MC_logo_b)" fill="#FF5F00" d="M18.7 3.5h14.2v25.6H18.7z" /><path clip-path="url(#MC_logo_b)" fill="#EB001B" d="M19.6 16.3c0-5.2 2.4-9.8 6.2-12.8C23 1.3 19.5 0 15.7 0 6.7 0-.5 7.3-.5 16.3s7.3 16.3 16.3 16.3c3.8 0 7.3-1.3 10.1-3.5-3.9-3-6.3-7.6-6.3-12.8" /><path clip-path="url(#MC_logo_b)" fill="#F79E1B" d="M52.1 16.3c0 9-7.3 16.3-16.3 16.3-3.8 0-7.3-1.3-10-3.5 3.8-3 6.2-7.6 6.2-12.8 0-5.2-2.4-9.8-6.2-12.8C28.5 1.3 32 0 35.8 0c9 0 16.3 7.3 16.3 16.3M50.5 26.3v-.5h.2v-.1h-.5v.1h.2v.5h.1zm1.1 0v-.6h-.2l-.2.4-.2-.4h-.2v.6h.2v-.5l.2.4h.1l.2-.4v.5h.1z" /></symbol><symbol viewBox="0 0 160 35" id="Raiff_logo"><path d="M0 .6h33.8v33.8H0z" /><path fill="#FFED00" d="M1 1.6h31.9v31.9H1z" /><path d="M2.7 27l4.2 4.2 9.7-9.9 10.1 10.1 4.2-4.2-10-10 1.9-1.9v-4l1.2-1v3.1l1.5 1.3 4.6-4.6 1.5 1.1C32.5 8 27.4.6 23.2 4.7l-4.9 4.9 1 1.2-2.5 2.4-2.4-2.4 1.3-1.1-5.4-5.2c-4-3.3-8.2 1.7-8.3 6.7L3.5 10 8 14.9l1.6-1.3v-3l1 .8v3.9l2 2L2.7 27zM150.3 14.5h3.3v-3.8h3.1v3.8h3.3V5h-3.3v3.3h-3.1V5h-3.3v9.5zm-20.2-6.7c.7-.5 1.7-.8 2.5-.8.4 0 1.3.1 1.3.9s-.8.8-1.1.8h-1.6v2.1h1.4c.5 0 1.4 0 1.4.8 0 .3-.2.9-1.3.9-1.2 0-1.9-.3-2.9-.9l-.9 2.2c1.8 1 3.5 1.1 4.2 1.1 3.8 0 4.3-2.2 4.3-2.9 0-1-.6-2-1.9-2.3.8-.4 1.4-1.2 1.4-2.2 0-2.2-2.3-2.7-3.8-2.7-1.3 0-2.9.4-3.9.9l.9 2.1zm-7.2-4c1.5 0 3.1-.6 3.8-2.2l-2.2-.8c-.3 1.1-1.2 1.2-1.6 1.2-.4 0-1.3-.1-1.6-1.2l-2.2.8c.8 1.6 2.3 2.2 3.8 2.2M117.8 5v9.5h3.2l3.3-5.2v5.2h3.3V5h-3.2l-3.3 5.1V5h-3.3zm-22.1 7.5V7.2c-1.1 0-2.3.8-2.3 2.6s1.2 2.7 2.3 2.7m2.9-5.3v5.3c1.1 0 2.3-.8 2.3-2.6 0-1.9-1.2-2.7-2.3-2.7m-3.1 11.4v-4c-2 0-5.2-.8-5.2-4.9 0-4.1 3.3-4.9 5.2-4.9v-4h3.3v4.1c2 0 5.2.8 5.2 4.9 0 4.1-3.3 4.9-5.2 4.9v4h-3.3zm-14.7-6.1V7.2c-1.1 0-2.3.8-2.3 2.6s1.1 2.7 2.3 2.7m2.9-5.3v5.3c1.1 0 2.3-.8 2.3-2.6-.1-1.9-1.2-2.7-2.3-2.7m-3.2 11.4v-4c-2 0-5.2-.8-5.2-4.9 0-4.1 3.2-4.9 5.2-4.9v-4h3.3v4.1c2 0 5.2.8 5.2 4.9 0 4.1-3.3 4.9-5.2 4.9v4h-3.3zM69.1 3.8c1.5 0 3.1-.6 3.7-2.2L70.6.8C70.3 1.9 69.4 2 69 2c-.4 0-1.3-.1-1.6-1.2l-2.2.8c.8 1.6 2.4 2.2 3.9 2.2M63.9 5v9.5h3.2l3.3-5.2v5.2h3.3V5h-3.2l-3.3 5.1V5h-3.3zM43.6 3.6v3.2h1.2c1.7 0 1.8-1 1.8-1.6 0-.7-.2-1.6-1.8-1.6H43.6zM40 14.5V.6h5.6c3.8 0 4.8 2.7 4.8 4.6 0 1.9-1.1 4.6-4.8 4.6h-2v4.7H40zM115.7 5v9.5h-3.3v-1.1c-.6.9-1.7 1.4-2.8 1.4-2.8 0-4.7-2.4-4.7-5.1 0-2.7 1.9-5 4.7-5 1.1 0 2.2.4 2.9 1.2V5h3.2zm-5.4 2.6c-1.4 0-2.1 1-2.1 2.1 0 1.2.8 2.1 2.1 2.1s2.1-.9 2.1-2.1c.1-1.1-.7-2.1-2.1-2.1M61.8 5v9.5h-3.3v-1.1c-.6.9-1.7 1.4-2.8 1.4-2.8 0-4.7-2.4-4.7-5.1 0-2.7 1.9-5 4.7-5 1.1 0 2.2.4 2.9 1.2V5h3.2zm-5.3 2.6c-1.4 0-2.1 1-2.1 2.1 0 1.2.8 2.1 2.1 2.1s2.1-.9 2.1-2.1c0-1.1-.8-2.1-2.1-2.1m92.2 2.6v.3h-7c0 1.4.7 2.1 2.1 2.1.7 0 1.2-.2 1.6-.9h3.2c-.5 2.3-2.6 3.3-4.8 3.3-3.1 0-5.4-1.8-5.4-5s2.1-5.1 5.2-5.1c3.2 0 5.1 2 5.1 5.3m-7-1.6h3.8c-.2-.9-1-1.5-1.9-1.5-.9 0-1.7.5-1.9 1.5M44.3 31.5h.6c.6 0 1.1 0 1.5-.1.4-.1.7-.2 1-.4.3-.2.5-.6.6-1.1.1-.5.1-.8-.1-1-.2-.2-.5-.4-.8-.4-.3 0-.8-.1-1.5-.1H45l-.7 3.1zm7.9-11.2l-.7 3.1H46l-.4 1.9h2.1c1.1 0 1.9.2 2.6.5.7.3 1.1.9 1.4 1.5.2.7.3 1.5 0 2.5-.2.9-.6 1.8-1.2 2.4-.6.7-1.3 1.2-2.1 1.5-.8.3-1.8.5-2.8.5H40l3-14.1h9.2zM61 24.7l-2.5 4.5h3l-.5-4.5zM56.9 32l-1.5 2.4h-3.9l8.4-14.1h4l2.3 14.1h-3.9l-.4-2.4h-5zM78.6 25.8l1.1-5.4h3.7l-3 14h-3.7l1.2-5.8h-5.2l-1.3 5.8h-3.6l3-14h3.6l-1.1 5.4zM94.3 20.3h4.5l-7 6.7 4.6 7.4h-4.8l-3.4-6.1-1.3 6.1h-3.7l3-14.1h3.7l-1.3 5.8h.1z" /></symbol><symbol viewBox="0 0 27 33" id="card-hand"><path fill="#858585" d="M14.18 1.33h-.43v22.39c0 .07-.01.14-.04.2l.47.48zm-1.37 0H2.99a1.6 1.6 0 0 0-1.59 1.6v24.79c0 .89.72 1.61 1.6 1.61h3.42a.461.461 0 1 1 0 .92H2.99a2.53 2.53 0 0 1-2.53-2.53V2.93C.46 1.53 1.6.4 2.99.4h14.43c1.4 0 2.54 1.13 2.54 2.53v12.4l-.01.1c1.13.9 6.15 5.05 6.15 8.96v7.4c0 .25-.21.46-.47.46a.47.47 0 0 1-.47-.46v-7.4c0-3-3.61-6.4-5.23-7.76V27.7c0 .67-.27 1.3-.73 1.78l1.96 1.98c.18.19.18.48-.01.66a.48.48 0 0 1-.67-.01l-7.86-7.96a2.2 2.2 0 0 0-3.06 0 2.08 2.08 0 0 0 0 2.99l3.39 4.36c.15.21.11.5-.1.66a.5.5 0 0 1-.28.09.48.48 0 0 1-.38-.18l-3.34-4.32a2.98 2.98 0 0 1 .04-4.25 3.16 3.16 0 0 1 3.92-.39zm6.17 26.37V15.74a.45.45 0 0 1 .04-.32.44.44 0 0 1 0-.09V2.93c0-.88-.72-1.6-1.6-1.6h-2.3v23.73c0 .09-.02.16-.06.23l3.48 3.52c.28-.3.44-.69.44-1.11z" /></symbol><symbol viewBox="0 0 20 41" id="fb"><path fill="currentColor" d="M13.38 40.8H5.9V20.7h-5v-6.92h5V9.7C5.89 4.05 7.4.61 14.02.61h5.51v6.93H16.1c-2.58 0-2.7.97-2.7 2.77v3.47h6.18l-.73 6.92H13.4z" /></symbol><symbol viewBox="0 0 33 39" id="person"><path fill="#858585" d="M16.3 23.56c-.64 0-1.27-.11-1.88-.33-2.84-1.01-4.55-3.79-5-6.05-.54-.29-.97-1.13-1.38-2.63-.4-1.44-.4-2.41 0-2.96.14-.18.31-.31.51-.39l-.12-.57a7.59 7.59 0 0 1 2.02-7.15 9.55 9.55 0 0 1 1.86-1.55 7.3 7.3 0 0 1 1.82-.94c.54-.19 1.1-.3 1.68-.33a6.93 6.93 0 0 1 4.19.91 5.66 5.66 0 0 1 1.96 1.79c.34.09.97.34 1.5 1.03.98 1.26 1.24 3.36.77 6.23-.03.19-.07.38-.13.58.2.08.38.21.51.39.41.55.42 1.52.01 2.96-.42 1.5-.86 2.34-1.4 2.63-.45 2.3-2.27 5.04-5 6.04a5.4 5.4 0 0 1-1.91.34zM9.1 12.05c-.24 0-.3.07-.32.1-.08.11-.3.57.15 2.15.53 1.93.93 2.05.94 2.05l.36.03.05.37c.33 2.11 1.96 4.71 4.45 5.6 1.02.36 2.16.36 3.17-.01 2.51-.92 4.15-3.51 4.47-5.59l.05-.37.37-.03s.4-.12.94-2.05c.44-1.58.22-2.04.15-2.15-.03-.03-.08-.1-.26-.1l-.72.07.16-.69c.13-.35.2-.67.26-.96.53-3.25-.02-4.78-.58-5.5-.51-.66-1.1-.72-1.1-.72l-.25-.02-.12-.23c0-.01-.5-.92-1.73-1.61a5.9 5.9 0 0 0-3.67-.79 5.48 5.48 0 0 0-3.06 1.11c-.62.4-1.19.88-1.7 1.42a6.76 6.76 0 0 0-1.8 3.19c-.22.88-.22 1.85.03 3.14a6 6 0 0 0 .25.97l.25.69-.73-.07H9.1zm7.22 26.59C6.87 38.63 1.26 35 1.02 34.85l-.17-.11-.03-.21c0-.02-.36-2.39-.3-3.31l-.02.01c-.12-1.61-.03-5.44 3.25-6.28 3.73-.97 6.82-3.15 6.85-3.17l.51-.37 3.09 9.87.76-2.2c-1.14-1.67-1.47-2.93-1-3.84.53-1.06 1.9-1.14 2.31-1.14h.12c.4 0 1.78.08 2.32 1.14.46.91.13 2.17-1 3.84l.75 2.19.42-1.29v.01l2.67-8.58.52.37c.03.02 3.12 2.21 6.85 3.17 3.28.85 3.36 4.67 3.25 6.28 0 .09-.17 2.3-.34 3.31l-.04.2-.17.11c-.23.15-5.84 3.79-15.3 3.79zM1.7 34.17c1 .6 6.36 3.52 14.62 3.53 8.3 0 13.63-2.93 14.63-3.53.15-1.04.3-2.99.3-3.01.12-1.7-.05-4.65-2.56-5.3a24.16 24.16 0 0 1-6.63-2.96L18.9 33.02l-.01-.04-.39 1.21-1.83-5.25.14-.2c.99-1.4 1.37-2.49 1.08-3.07-.32-.62-1.38-.64-1.5-.64h-.12c-.12 0-1.18.02-1.5.64-.29.58.1 1.67 1.08 3.07l.14.2-1.83 5.25-.39-1.21V33l-.9-2.84-2.26-7.26a24.17 24.17 0 0 1-6.64 2.96c-2.5.64-2.68 3.6-2.55 5.3l.01.21v.01c.03.51.15 1.95.27 2.79z" /></symbol><symbol viewBox="0 0 28 29" id="phone"><path d="M22.35 29c-3 0-8.52-3.51-13.75-8.74a42.67 42.67 0 0 1-7.06-9c-1.7-3.1-2-5.36-.82-6.53L4.67 1.2a.88.88 0 0 1 1.25.09l5.27 6.13c.25.28.28.7.09 1.02l-2.3 3.8 7.78 7.78 3.78-2.3a.87.87 0 0 1 1.03.08l6.12 5.25a.88.88 0 0 1 .09 1.25l-3.46 3.93-.06.07c-.47.46-1.11.7-1.91.7zM1.97 5.95c-.34.4-.41 1.71 1.1 4.47a40.93 40.93 0 0 0 6.77 8.6c5.4 5.4 10.38 8.23 12.5 8.23.23 0 .52-.03.68-.19l2.86-3.25-4.97-4.27-3.83 2.33a.87.87 0 0 1-1.08-.13l-8.74-8.76a.88.88 0 0 1-.13-1.07l2.32-3.83L5.17 3.1z" /></symbol><symbol viewBox="0 0 36 23" id="vk"><path fill="currentColor" d="M17.9 22.4H20s.63-.07.96-.45c.3-.35.29-1.02.29-1.02s-.04-3.14 1.27-3.6c1.29-.45 2.95 3 4.7 4.33 1.33 1 2.34.75 2.34.75h4.7s2.46-.2 1.3-2.33c-.1-.17-.69-1.57-3.5-4.45-2.95-3.01-2.55-2.52 1-7.73 2.16-3.17 3.02-5.11 2.75-5.94-.26-.79-1.83-.65-1.83-.65h-5.3s-.4-.05-.69.14c-.28.2-.47.68-.47.68s-.83 2.5-1.95 4.59c-2.35 4.4-3.3 4.63-3.68 4.36-.9-.64-.67-2.56-.67-3.93 0-4.27.58-6.05-1.15-6.5-.57-.16-1-.26-2.47-.28-1.89-.02-3.48 0-4.39.5-.6.32-1.06 1.04-.78 1.09.35.05 1.14.23 1.56.86.54.81.52 2.64.52 2.64s.31 5.02-.72 5.64c-.72.43-1.7-.44-3.8-4.44-1.07-2.04-1.88-4.35-1.88-4.35s-.16-.42-.44-.65c-.34-.27-.81-.36-.81-.36H1.83s-.76.02-1.03.39c-.25.32-.02.99-.02.99S4.7 12.88 9.17 18c4.09 4.68 8.73 4.4 8.73 4.4z" /></symbol><symbol preserveAspectRatio="xMidYMid" viewBox="0 0 33.812 22.281" id="5"><defs><style><div>#5 .cls-1{fill:#000;fill-rule:evenodd}</div></style></defs><path d="M29.478 22.004c-2.624 0-4.32-1.792-4.32-4.192 0-2.4 1.696-4.191 4.32-4.191 2.624 0 4.32 1.791 4.32 4.191s-1.696 4.192-4.32 4.192zm0-7.231c-2.08 0-3.04 1.631-3.04 3.039 0 1.408.96 3.04 3.04 3.04s3.04-1.632 3.04-3.04c0-1.408-.96-3.039-3.04-3.039zM18.375 21.78L30.982-.01l.96.512-12.607 21.79-.96-.512zm2.464-13.119c-2.624 0-4.32-1.792-4.32-4.192 0-2.4 1.696-4.191 4.32-4.191 2.623 0 4.319 1.791 4.319 4.191s-1.696 4.192-4.319 4.192zm0-7.232c-2.08 0-3.04 1.632-3.04 3.04 0 1.408.96 3.04 3.04 3.04 2.079 0 3.039-1.632 3.039-3.04 0-1.408-.96-3.04-3.039-3.04zM5.111 7.509a5.56 5.56 0 0 1 1.439-.192c4.544 0 7.424 3.136 7.424 7.392 0 4.607-3.424 7.455-7.584 7.455-2.239 0-4.863-.864-6.399-3.52l1.248-.512c1.184 1.76 3.04 2.752 5.183 2.752 3.52 0 6.08-2.56 6.08-6.143 0-3.616-2.464-6.144-6.016-6.144-1.343 0-2.399.352-3.327.928L5.911.47h8.159v1.279H6.902l-1.791 5.76z" class="cls-1" /></symbol><symbol preserveAspectRatio="xMidYMid" viewBox="0 0 25.625 31.84" id="Card_in_hand"><defs><style><div>#Card_in_hand .cls-1{fill:#858585;fill-rule:evenodd}</div></style></defs><path d="M25.16 31.84a.469.469 0 0 1-.473-.464v-7.4c0-3.008-3.613-6.389-5.228-7.752v11.069a2.51 2.51 0 0 1-.737 1.768l1.967 1.992a.458.458 0 0 1-.011.656.481.481 0 0 1-.67-.011l-7.862-7.96a2.196 2.196 0 0 0-3.051.005 2.08 2.08 0 0 0-.632 1.496c0 .565.224 1.096.632 1.495l3.382 4.361a.458.458 0 0 1-.091.651.482.482 0 0 1-.664-.09l-3.339-4.314a2.934 2.934 0 0 1-.867-2.103c0-.813.323-1.577.91-2.152 1.061-1.039 2.706-1.168 3.912-.386V.917H2.525c-.877 0-1.59.719-1.59 1.601v24.796c0 .883.713 1.602 1.59 1.602h3.426c.261 0 .473.208.473.464a.469.469 0 0 1-.473.464H2.525a2.535 2.535 0 0 1-2.536-2.53V2.518A2.536 2.536 0 0 1 2.525-.011h14.43a2.536 2.536 0 0 1 2.535 2.529v12.398c0 .037-.018.068-.027.102 1.077.839 6.17 5.022 6.17 8.958v7.4a.469.469 0 0 1-.473.464zM13.284.917V23.31a.442.442 0 0 1-.049.197l.475.48V.917h-.426zm5.26 13.999V2.518c0-.882-.713-1.601-1.589-1.601h-2.299v23.736a.442.442 0 0 1-.067.224l3.478 3.522a1.6 1.6 0 0 0 .446-1.106V15.314a.436.436 0 0 1 .052-.298c-.01-.033-.021-.065-.021-.1z" class="cls-1" /></symbol><symbol preserveAspectRatio="xMidYMid" viewBox="0 0 32 32" id="airplane"><defs><style><div>#airplane .cls-1{fill:#000;fill-rule:evenodd}</div></style></defs><path d="M29.826 7.445l-.006.004-.005.007-7.1 6.775 2.603 14.317a.667.667 0 0 1-.184.59l-2.668 2.668a.666.666 0 0 1-1.097-.241l-4.325-11.741-6.385 5.805v3.705c0 .177-.07.346-.196.472l-2 2a.668.668 0 0 1-1.096-.238l-1.862-4.964-5.076-1.835a.668.668 0 0 1-.222-1.12l2.003-1.828a.663.663 0 0 1 .449-.175h3.788l5.745-6.557L.42 10.619a.667.667 0 0 1-.235-1.095l2.667-2.666a.667.667 0 0 1 .591-.186l14.316 2.604 6.776-7.101C26.256.455 27.818.043 28.828-.002c1.134-.05 2.064.338 2.445.719.382.382.77 1.31.72 2.446-.045 1.01-.458 2.572-2.167 4.282zm.501-5.788c-.288-.256-2.32-1.068-4.838 1.45l-7.012 7.349a.67.67 0 0 1-.602.196L3.548 8.047 1.857 9.739l11.706 4.443a.67.67 0 0 1 .265 1.064l-6.577 7.506a.663.663 0 0 1-.501.227H2.918l-.997.911 4.024 1.455a.66.66 0 0 1 .671.42l1.636 4.366 1.073-1.073v-3.725c0-.187.079-.367.218-.493l7.335-6.668a.668.668 0 0 1 1.075.262l4.307 11.692 1.684-1.683-2.605-14.326a.665.665 0 0 1 .196-.602l7.353-7.018c2.513-2.518 1.703-4.545 1.439-4.84z" class="cls-1" /></symbol><symbol preserveAspectRatio="xMidYMid" viewBox="0 0 40 40" id="calendar"><defs><style><div>#calendar .cls-1{fill:#fed100;fill-rule:evenodd}</div></style></defs><path d="M38 39.999H2c-1.103 0-2-.898-2-2v-32c0-1.102.897-2 2-2h10.667V.665a.666.666 0 1 1 1.333 0v3.334h12V.665a.666.666 0 1 1 1.333 0v3.334H38c1.103 0 2 .898 2 2v32c0 1.102-.897 2-2 2zm.667-34A.667.667 0 0 0 38 5.332H27.333v2a.666.666 0 1 1-1.333 0v-2H14v2a.666.666 0 1 1-1.333 0v-2H2a.667.667 0 0 0-.667.667v32c0 .367.299.666.667.666h36a.667.667 0 0 0 .667-.666v-32zm-5.529 25.138a.665.665 0 0 1-.943 0L30 28.941l-2.195 2.196a.667.667 0 0 1-.943-.944l2.195-2.194-2.195-2.196a.666.666 0 1 1 .943-.942L30 27.056l2.195-2.195a.666.666 0 1 1 .943.942l-2.195 2.196 2.195 2.194c.26.261.26.683 0 .944zm-1.805-11.138h-2.666a.667.667 0 0 1-.667-.667v-2.667c0-.367.298-.667.667-.667h2.666c.369 0 .667.3.667.667v2.667a.667.667 0 0 1-.667.667zm-.666-2.667h-1.334v1.333h1.334v-1.333zm-9.334 12.666h-2.666a.665.665 0 0 1-.667-.666v-2.667c0-.368.298-.666.667-.666h2.666c.369 0 .667.298.667.666v2.667a.665.665 0 0 1-.667.666zm-.666-2.666h-1.334v1.334h1.334v-1.334zm.666-7.333h-2.666a.667.667 0 0 1-.667-.667v-2.667c0-.367.298-.667.667-.667h2.666c.369 0 .667.3.667.667v2.667a.667.667 0 0 1-.667.667zm-.666-2.667h-1.334v1.333h1.334v-1.333zm-9.334 12.666H8.667A.665.665 0 0 1 8 29.332v-2.667c0-.368.298-.666.667-.666h2.666c.369 0 .667.298.667.666v2.667a.665.665 0 0 1-.667.666zm-.666-2.666H9.333v1.334h1.334v-1.334zm.666-7.333H8.667A.667.667 0 0 1 8 19.332v-2.667c0-.367.298-.667.667-.667h2.666c.369 0 .667.3.667.667v2.667a.667.667 0 0 1-.667.667zm-.666-2.667H9.333v1.333h1.334v-1.333z" class="cls-1" /></symbol><symbol preserveAspectRatio="xMidYMid" viewBox="0 0 40 40" id="earth"><defs><style><div>#earth .cls-1{fill:#fed100;fill-rule:evenodd}</div></style></defs><path d="M20-.001c-11.028 0-20 8.972-20 20s8.972 19.999 20 19.999 20-8.971 20-19.999c0-11.028-8.972-20-20-20zm16.708 12.492c-1.111 1.322-2.378 2.484-2.898 2.644-.684-.64-2.339-1.845-3.397-1.175-.422.267-.827.857-.364 2.152.597 1.673 2.072 3.189 2.94 3.977-.824 1.003-2.156 2.815-2.156 4.076 0 .215-.04.275-.399.586-.504.439-1.267 1.101-1.267 2.748 0 1.06-1.811 1.964-3.042 2.376-.467-.609-1.125-1.632-1.125-2.376 0-.475.086-.586.257-.808.304-.393.576-.819.576-1.692 0-.836-.25-1.41-.472-1.918-.202-.463-.361-.83-.361-1.415 0-2.176-4.177-2.501-6.667-2.501-.672 0-1.666-.264-1.666-.833 0-.26-.024-.543-.051-.842-.087-.991-.17-1.926.64-2.735 1.284-1.284 3.512-1.423 4.411-1.423.896 0 1.192.141 1.567.316.62.293 1.205.517 2.599.517l.962.012c1.782.025 3.32.056 4.226-.836.429-.421.646-.985.646-1.676 0-3.008-5.245-3.333-7.5-3.333-1.568 0-2.666.525-3.635.988-.599.287-1.134.542-1.714.638a.624.624 0 0 1 .009-.078c.118-.745 1.21-1.876 2.383-2.471.829-.421 1.798-1.029 1.924-1.999a1.682 1.682 0 0 0-.206-1.022c1.105-.412 3.196-.747 5.033-.878a18.423 18.423 0 0 1 8.747 8.981zM6.667 29.166v3.377c-3.073-3.263-4.974-7.638-4.996-12.459 1.429.286 2.005 1.309 2.6 2.389.298.543.579 1.055.973 1.448.711.712 1.667.819 2.364.897.261.03.657.074.725.181 0 .432-.218.767-.604 1.322-.473.681-1.062 1.53-1.062 2.845zM20 38.332A18.253 18.253 0 0 1 8.333 34.13v-4.964c0-.793.355-1.303.765-1.894.423-.608.902-1.297.902-2.273 0-1.59-1.435-1.751-2.206-1.837-.552-.062-1.073-.121-1.372-.419-.226-.226-.452-.637-.691-1.072-.652-1.186-1.612-2.903-3.984-3.262C2.557 9.043 10.428 1.666 20 1.666c1.574 0 3.094.22 4.553.595-1.413.265-2.835.675-3.476 1.316a.833.833 0 0 0 .035 1.212c.3.265.358.399.369.399-.019.04-.172.301-1.024.734-1.408.714-3.034 2.174-3.276 3.695-.111.69.09 1.33.563 1.804a.83.83 0 0 0 .589.244c1.158 0 2.052-.428 2.917-.841.888-.424 1.727-.825 2.917-.825 3.27 0 5.833.732 5.833 1.666 0 .343-.107.449-.147.487-.41.403-1.804.377-3.029.358a53.675 53.675 0 0 0-.991-.011c-1.131 0-1.482-.166-1.888-.357-.473-.223-1.008-.477-2.278-.477-1.374 0-3.927.249-5.59 1.911-1.359 1.36-1.215 2.985-1.121 4.061.022.247.044.481.044.695 0 1.641 1.677 2.5 3.333 2.5 2.548 0 4.75.475 5 .833 0 .933.278 1.57.501 2.081.185.427.333.765.333 1.253 0 .377-.062.458-.229.673-.318.413-.605.864-.605 1.827 0 1.753 1.689 3.677 1.881 3.891a.831.831 0 0 0 .826.249c.491-.126 4.793-1.31 4.793-4.14 0-.887.276-1.127.694-1.489.411-.357.973-.845.973-1.845 0-.668 1.186-2.392 2.284-3.607a.834.834 0 0 0-.106-1.218c-.648-.502-2.437-2.137-3.036-3.723.34.178.764.466 1.102.804.278.279.65.413 1.073.396 1.101-.063 2.543-1.42 3.578-2.57.601 1.811.938 3.741.938 5.752 0 10.109-8.224 18.333-18.333 18.333z" class="cls-1" /></symbol><symbol preserveAspectRatio="xMidYMid" viewBox="0 0 27 44" id="family"><defs><style><div>#family .cls-1{fill:#fed100;fill-rule:evenodd}</div></style></defs><path d="M26.801 24.567l-.049.692c-.16 2.276-.266 3.779-1.016 4.658-.679.794-1.493 1.014-2.171 1.168-.419 3.692-.891 7.768-1.419 11.173l-.009.05c-.375 1.655-2.268 1.676-3.52 1.689l-.07.001-.153.001c-1.543 0-2.313-.278-2.844-.697-.402.544-1.206.624-1.805.624-.132 0-.252-.004-.357-.007a9.767 9.767 0 0 1-.321.006c-.571 0-1.381-.075-1.801-.595-.777.517-1.881.598-2.603.649l-.056.004-.048.001-.033-.003v.003c-1.085-.057-3.271-.173-3.327-2.142-.584-3.903-1.1-8.598-1.556-12.781-.713-.152-1.561-.374-2.271-1.143-.812-.882-.927-2.39-1.101-4.674l-.053-.692c-.195-2.464-.283-6.657-.162-7.736.223-2 1.554-2.388 2.964-2.798 1.583-.461 3.87-.649 5.51-.725.01 0 .02.002.03.001.01.001.02-.001.03-.001 1.64.076 3.928.264 5.511.725 1.033.301 2.017.588 2.561 1.497a40.667 40.667 0 0 1 2.205-.18.632.632 0 0 1 .195-.023c.038.002.074.005.112.006l.129-.006a.679.679 0 0 1 .197.026c2.003.12 3.581.356 4.684.702 1.317.415 2.561.806 2.767 2.8.112 1.075.03 5.263-.15 7.727zm-15.783 10.2c.112.663.225 1.385.343 2.132.284 1.804.606 3.845.97 5.53.098.043.356.102 1.037.081l.02.001c.007 0 .014-.002.022-.001.68.022.944-.033 1.047-.08.376-1.692.711-3.734 1.007-5.539.123-.746.241-1.466.356-2.129a.684.684 0 0 1 .78-.57.702.702 0 0 1 .559.802l-.183 1.229c.108-.041.206-.094.291-.163.185-.149.253-.824.326-1.538l.035-.334c.127-1.208.161-3.074.108-3.431-.027-.183-.086-.258-1.044-.467-.726-.157-1.858-.267-3.273-.317-1.416.05-2.547.16-3.273.317-.958.209-1.017.284-1.044.467-.053.357-.019 2.223.108 3.431l.035.335c.072.713.141 1.389.325 1.537.086.069.184.122.292.163l-.183-1.228a.702.702 0 0 1 .561-.803.68.68 0 0 1 .778.575zm14.584-17.776c-.106-1.022-.491-1.187-1.811-1.602-1.031-.325-2.627-.551-4.617-.66-2.159.109-3.893.337-5.014.663-1.535.448-1.875.636-1.983 1.605-.024.211-.038.608-.044 1.138a3.397 3.397 0 0 1 1.286-.258c2.262 0 4.102 2.267 4.102 5.053s-1.84 5.052-4.102 5.052c-2.262 0-4.102-2.266-4.102-5.052 0-1.546.568-2.93 1.458-3.857-.006-.799 0-1.763.054-2.239.223-1.999 1.554-2.387 2.964-2.798.342-.099.721-.184 1.115-.26-.283-.131-.657-.252-1.174-.402-1.149-.335-2.938-.567-5.174-.672-2.235.105-4.024.337-5.173.672-1.535.448-1.875.635-1.983 1.604-.102.916-.033 4.928.166 7.459l.054.696c.145 1.911.251 3.292.729 3.811.321.348.708.518 1.126.633l-.411-3.696a.698.698 0 0 1 .595-.78.684.684 0 0 1 .753.615c.177 1.531.358 3.195.547 4.919.464 4.252.989 9.071 1.585 13.038a.876.876 0 0 1 .008.103c.004.517.509.719 1.999.799l.015-.002c1.368-.097 2.132-.27 2.227-.867a119.046 119.046 0 0 1-.679-3.972c-.44-.076-.939-.204-1.383-.563-.638-.517-.723-1.349-.84-2.5l-.034-.328c-.118-1.122-.189-3.206-.1-3.802.18-1.21 1.16-1.423 2.107-1.629.816-.178 2.004-.295 3.529-.347.007-.001.015.002.022.002l.022-.002c1.526.052 2.713.169 3.53.347.946.206 1.925.419 2.106 1.629.09.596.018 2.68-.1 3.802l-.034.328c-.117 1.151-.202 1.983-.84 2.5-.45.364-.957.49-1.4.566a118.497 118.497 0 0 1-.72 4.042l.019.022c.375.452.674.811 2.53.788h.07c.869-.01 2.056-.023 2.209-.585.557-3.595 1.052-7.958 1.488-11.809.178-1.565.349-3.075.516-4.464a.686.686 0 0 1 .752-.612c.37.044.636.39.597.774l-.38 3.683c.351-.113.664-.276.936-.594.445-.522.543-1.907.678-3.825l.05-.697c.185-2.535.249-6.553.154-7.469zM10.674 22.93c0 2.009 1.231 3.644 2.745 3.644 1.513 0 2.745-1.635 2.745-3.644 0-2.01-1.232-3.645-2.745-3.645-1.514 0-2.745 1.635-2.745 3.645zm8.206-10.806c-2.262 0-4.102-2.268-4.102-5.054 0-2.786 1.84-5.053 4.102-5.053 2.263 0 4.103 2.267 4.103 5.053s-1.841 5.054-4.103 5.054zm0-8.698c-1.513 0-2.744 1.634-2.744 3.644 0 2.009 1.231 3.645 2.744 3.645 1.514 0 2.746-1.636 2.746-3.645 0-2.01-1.232-3.644-2.746-3.644zM8.56 10.104c-2.262 0-4.102-2.266-4.102-5.053 0-2.785 1.84-5.052 4.102-5.052 2.262 0 4.103 2.267 4.103 5.052 0 2.787-1.841 5.053-4.103 5.053zm0-8.697c-1.513 0-2.745 1.635-2.745 3.644 0 2.01 1.232 3.645 2.745 3.645 1.514 0 2.745-1.635 2.745-3.645 0-2.009-1.231-3.644-2.745-3.644z" class="cls-1" /></symbol><symbol preserveAspectRatio="xMidYMid" viewBox="0 0 44 37" id="hand-banknotes"><defs><style><div>#hand-banknotes .cls-1{fill:#fed100;fill-rule:evenodd}</div></style></defs><path d="M41.927 31.049l-11.321 5.865a.761.761 0 0 1-.342.084l-.114.001c-.862 0-6.07-.045-9.355-1.085-1.127-.355-2.476-.832-3.78-1.291-2.539-.895-5.418-1.91-6.323-1.91-1.189 0-6.052 1.018-7.824 1.41a.76.76 0 0 1-.56-.092.715.715 0 0 1-.324-.45L.011 24.834A.708.708 0 0 1 .523 24c12.293-3.487 18.565-2.559 18.825-2.519.04.007.08.016.118.028l11.084 3.623c.011.003.019.012.029.016.012.004.024.003.035.007a3.569 3.569 0 0 1 2.06 2.491l6.502-3.183c.009-.005.019-.004.027-.008.008-.003.013-.01.021-.013.877-.355 1.658-.412 2.533-.053a3.54 3.54 0 0 1 1.961 1.97c.731 1.816.029 3.953-1.791 4.69zm.419-4.174c-.218-.54-.448-.899-.981-1.118a2.077 2.077 0 0 0-1.561-.006l-7.133 3.492a3.414 3.414 0 0 1-.184.585 3.539 3.539 0 0 1-2.002 1.928 3.565 3.565 0 0 1-2.682-.037L17.43 28.424a.707.707 0 0 1-.469-.899.743.743 0 0 1 .929-.453l10.407 3.306a.595.595 0 0 1 .07.027 2.075 2.075 0 0 0 1.573.03 2.11 2.11 0 0 0 1.187-1.151 2.156 2.156 0 0 0-1.101-2.823l-10.967-3.583c-.618-.078-6.544-.704-17.463 2.303l1.669 7.397c1.791-.386 6.118-1.288 7.427-1.288 1.087 0 3.305.754 6.828 1.996 1.292.456 2.629.927 3.733 1.277 2.953.933 7.829 1.006 8.822 1.012l11.22-5.808c1.153-.471 1.495-1.787 1.051-2.892zm-1.867-8.377H15.452c-.407 0-.862-.319-.862-.711V3.556c0-.392.455-.712.862-.712h24.792c.406 0 .733.32.733.712v14.231c0 .392-.091.711-.498.711zm-.968-14.231H16.056v12.807h23.455V4.267zm-11.317 2.14c2.029 0 3.284 1.912 3.284 4.263 0 2.352-1.255 4.265-3.284 4.265s-3.352-1.913-3.352-4.265c0-2.351 1.323-4.263 3.352-4.263zm0 7.104c1.218 0 1.812-1.274 1.812-2.841 0-1.565-.594-2.841-1.812-2.841s-1.88 1.276-1.88 2.841c0 1.567.662 2.841 1.88 2.841zm9.34-12.09h-24.41v13.52c0 .392-.21.711-.617.711-.406 0-.848-.319-.848-.711V.71c0-.393.442-.712.848-.712h25.027c.407 0 .736.319.736.712a.724.724 0 0 1-.736.711z" class="cls-1" /></symbol><symbol preserveAspectRatio="xMidYMid" viewBox="0 0 32 27" id="hand-credit-card"><defs><style><div>#hand-credit-card .cls-1{fill:#000;fill-rule:evenodd}</div></style></defs><path d="M30.342 22.439l-8.145 4.472a.668.668 0 0 1-.324.083h-.014c-.174-.004-4.291-.095-6.828-.92a90.808 90.808 0 0 1-2.742-.967c-1.714-.624-3.847-1.4-4.469-1.4-.734 0-3.795.792-5.553 1.29a.68.68 0 0 1-.529-.069.662.662 0 0 1-.308-.429L.013 17.782a.656.656 0 0 1 .477-.768c8.806-2.374 13.354-1.87 13.542-1.846a.625.625 0 0 1 .123.026l7.961 2.511c.011.003.019.012.03.016.013.005.027.004.04.009.806.359 1.349 1.079 1.543 1.894l4.482-2.276c.008-.004.017-.003.026-.007.007-.004.012-.011.02-.014a2.651 2.651 0 0 1 2.054.003c.685.286 1.214.83 1.488 1.533.546 1.395-.107 2.99-1.457 3.576zm.214-3.103a1.411 1.411 0 0 0-.767-.797 1.305 1.305 0 0 0-1.008-.001l-5.114 2.596c-.023.073-.036.146-.066.218a2.715 2.715 0 0 1-2.496 1.687c-.354 0-.709-.071-1.044-.215l-7.603-2.435a.656.656 0 0 1-.428-.828.666.666 0 0 1 .839-.422l7.636 2.445a.546.546 0 0 1 .067.026c.326.144.685.152 1.014.022.353-.138.63-.415.782-.779.308-.741-.016-1.597-.721-1.916l-7.831-2.47c-.533-.047-4.751-.328-12.37 1.654l1.144 5.42c1.38-.378 4.301-1.148 5.23-1.148.802 0 2.398.56 4.931 1.481.935.34 1.902.692 2.698.952 2.065.671 5.451.821 6.26.848l8.015-4.4a.378.378 0 0 1 .064-.031c.717-.3 1.062-1.155.768-1.907zm-1.229-6.199H10.664c-.369 0-.783-.264-.783-.627V.656c0-.363.414-.665.783-.665h18.663c.368 0 1.06.302 1.06.665V12.51c0 .363-.692.627-1.06.627zm-.262-1.285V5.25H11.204v6.602h17.861zM11.204 1.315v1.964h17.861V1.315H11.204z" class="cls-1" /></symbol><symbol preserveAspectRatio="xMidYMid" viewBox="0 0 40 40" id="snowboard"><defs><style><div>#snowboard .cls-1{fill:#fed100;fill-rule:evenodd}</div></style></defs><path d="M37.436 14.936c-2.918 2.918-4.615 4.299-6.256 5.633-1.579 1.285-3.071 2.499-5.591 5.019-2.858 2.859-4.21 4.521-5.519 6.129-1.255 1.543-2.552 3.139-5.133 5.719a8.692 8.692 0 0 1-6.187 2.563 8.69 8.69 0 0 1-6.187-2.563A8.69 8.69 0 0 1 0 31.249a8.69 8.69 0 0 1 2.563-6.187c2.919-2.919 4.616-4.299 6.257-5.634 1.579-1.284 3.071-2.499 5.591-5.019 2.858-2.858 4.21-4.52 5.519-6.129 1.255-1.542 2.552-3.138 5.133-5.718A8.69 8.69 0 0 1 31.25-.001c2.337 0 4.534.91 6.186 2.563A8.687 8.687 0 0 1 40 8.749c0 2.338-.91 4.534-2.564 6.187zM36.258 3.74a7.033 7.033 0 0 0-5.008-2.075c-1.891 0-3.67.736-5.008 2.075-2.52 2.52-3.734 4.013-5.02 5.592-1.334 1.641-2.715 3.338-5.633 6.256-2.58 2.58-4.175 3.878-5.718 5.132-1.608 1.309-3.271 2.662-6.129 5.52a7.036 7.036 0 0 0-2.075 5.009c0 1.892.737 3.671 2.075 5.009a7.036 7.036 0 0 0 5.008 2.074c1.891 0 3.67-.736 5.008-2.074 2.52-2.521 3.734-4.013 5.02-5.593 1.334-1.64 2.714-3.337 5.633-6.255 2.579-2.581 4.175-3.878 5.718-5.133 1.608-1.308 3.271-2.661 6.129-5.519a7.038 7.038 0 0 0 2.075-5.009 7.036 7.036 0 0 0-2.075-5.009zM25.254 20.869a2.197 2.197 0 0 1-1.563-.648c-.532-.531-.781-.839-1.027-1.139-.208-.256-.41-.506-.827-.922a11.345 11.345 0 0 0-1.012-.912 11.802 11.802 0 0 1-1.046-.94 2.188 2.188 0 0 1-.648-1.563c0-.59.229-1.145.648-1.563v-.001c.835-.833 2.286-.834 3.125 0 .532.533.781.841 1.027 1.142.206.255.41.505.825.92.473.473.745.695 1.014.912.29.236.574.468 1.046.94a2.214 2.214 0 0 1 0 3.126 2.193 2.193 0 0 1-1.562.648zm.384-2.595c-.415-.415-.666-.618-.921-.825-.3-.245-.607-.495-1.139-1.028a11.634 11.634 0 0 1-.941-1.048c-.218-.267-.44-.54-.912-1.012a.538.538 0 0 0-.768 0v.001a.535.535 0 0 0 0 .767c.415.416.664.619.92.827.301.244.608.495 1.139 1.026.474.472.705.757.941 1.047.218.267.441.541.913 1.014a.556.556 0 0 0 .768 0 .544.544 0 0 0 0-.769zm-5.488 8.614a2.196 2.196 0 0 1-1.563.647c-.591 0-1.146-.23-1.562-.647a12.653 12.653 0 0 1-1.027-1.14c-.209-.255-.412-.506-.827-.921a11.622 11.622 0 0 0-1.014-.913 12.05 12.05 0 0 1-1.047-.939 2.213 2.213 0 0 1 0-3.125v-.002a2.22 2.22 0 0 1 3.127 0c.532.533.781.84 1.027 1.141.207.255.41.506.825.921.474.473.747.695 1.014.912.29.236.575.468 1.047.94a2.214 2.214 0 0 1 0 3.126zm-1.179-1.948a10.482 10.482 0 0 0-.919-.824c-.301-.246-.609-.495-1.141-1.028-.474-.472-.705-.757-.941-1.048-.218-.267-.439-.54-.912-1.012a.544.544 0 0 0-.769.768c.415.414.664.618.919.825.301.245.609.495 1.141 1.028.472.472.705.755.941 1.046.218.268.439.542.913 1.014a.556.556 0 0 0 .768 0 .544.544 0 0 0 0-.769z" class="cls-1" /></symbol><symbol preserveAspectRatio="xMidYMid" viewBox="0 0 30 40" id="suitcase"><defs><style><div>#suitcase .cls-1{fill:#fed100;fill-rule:evenodd}</div></style></defs><path d="M26.666 38.332c0 .919-.747 1.667-1.666 1.667-.92 0-1.667-.748-1.667-1.667H6.667c0 .919-.747 1.667-1.667 1.667s-1.667-.748-1.667-1.667A3.337 3.337 0 0 1 0 34.999V16.666a3.337 3.337 0 0 1 3.333-3.334c0-.461.373-.833.834-.833h1.666c.461 0 .834.372.834.833H10V4.845a2.495 2.495 0 0 1-1.667-2.346c0-1.379 1.122-2.5 2.5-2.5h8.334c1.378 0 2.5 1.121 2.5 2.5A2.495 2.495 0 0 1 20 4.845v8.487h3.333c0-.461.373-.833.834-.833h1.666c.461 0 .834.372.834.833A3.337 3.337 0 0 1 30 16.666v18.333a3.337 3.337 0 0 1-3.334 3.333zM19.167 1.665h-8.334a.834.834 0 0 0 0 1.667h8.334a.834.834 0 0 0 0-1.667zm-7.5 3.334v8.333h6.666V4.999h-6.666zm16.666 16.898v-5.231c0-.919-.747-1.667-1.666-1.667H3.333c-.919 0-1.666.748-1.666 1.667v5.231c1.381.413 5.574 1.435 13.333 1.435s11.952-1.022 13.333-1.435zm0 1.735c-1.859.506-6.076 1.367-13.333 1.367-7.257 0-11.474-.861-13.333-1.367v11.367c0 .918.747 1.666 1.666 1.666h23.334c.919 0 1.666-.748 1.666-1.666V23.632zm-7.5 6.367H9.167a.833.833 0 1 1 0-1.667h11.666a.833.833 0 1 1 0 1.667zM9.167 31.665h11.666a.833.833 0 1 1 0 1.667H9.167a.833.833 0 1 1 0-1.667zm4.166-11.666A1.67 1.67 0 0 1 15 18.331c.92 0 1.667.749 1.667 1.668A1.67 1.67 0 0 1 15 21.666a1.67 1.67 0 0 1-1.667-1.667zM15 19.998v.001h.833L15 19.998z" class="cls-1" /></symbol><symbol preserveAspectRatio="xMidYMid" viewBox="0 0 32 32" id="umbrella"><defs><style><div>#umbrella .cls-1{fill:#000;fill-rule:evenodd}</div></style></defs><path d="M31.869 13.278C29.244 6.687 23.372 2.396 16.665 2.121V.678c0-.411-.274-.68-.679-.68s-.679.275-.679.68v1.443C8.593 2.396 2.656 6.759.031 13.408c-.183.634.49 1.13 1.019.817.679-.411 1.358-.614 2.103-.614 1.495 0 2.854.817 3.735 2.181.458.635.967.204 1.084 0a4.336 4.336 0 0 1 3.736-2.181c1.417 0 2.717.738 3.599 1.979v13.887c0 .614-.477 1.156-1.084 1.156-.608 0-1.085-.542-1.085-1.156v-1.156c0-.412-.274-.679-.679-.679s-.679.275-.679.679v1.156c0 1.366 1.084 2.522 2.443 2.522 1.358 0 2.442-1.156 2.442-2.522V15.61c.941-1.248 2.24-1.992 3.599-1.992 1.495 0 2.854.816 3.735 2.181.445.647 1.013.21 1.156 0 .954-1.365 2.306-2.181 3.736-2.181.745 0 1.424.202 2.103.613 1.039.601 1.156-.483.875-.953zm-3.05-1.019c-1.626 0-3.122.751-4.277 2.044-1.156-1.293-2.645-2.044-4.278-2.044-1.626 0-3.122.751-4.278 2.044-1.156-1.293-2.645-2.044-4.278-2.044-1.626 0-3.122.751-4.278 2.044-1.156-1.293-2.645-2.044-4.277-2.044-.405 0-.745.065-1.156.137 2.717-5.454 8.078-8.922 13.989-8.922 5.904 0 11.273 3.475 13.983 8.922-.405-.072-.745-.137-1.15-.137z" class="cls-1" /></symbol></defs><use id="MC_logo-usage" xlink:href="#MC_logo" class="sprite-symbol-usage" /><use id="Raiff_logo-usage" xlink:href="#Raiff_logo" class="sprite-symbol-usage" /><use id="card-hand-usage" xlink:href="#card-hand" class="sprite-symbol-usage" /><use id="fb-usage" xlink:href="#fb" class="sprite-symbol-usage" /><use id="person-usage" xlink:href="#person" class="sprite-symbol-usage" /><use id="phone-usage" xlink:href="#phone" class="sprite-symbol-usage" /><use id="vk-usage" xlink:href="#vk" class="sprite-symbol-usage" /><use id="5-usage" xlink:href="#5" class="sprite-symbol-usage" /><use id="Card_in_hand-usage" xlink:href="#Card_in_hand" class="sprite-symbol-usage" /><use id="airplane-usage" xlink:href="#airplane" class="sprite-symbol-usage" /><use id="calendar-usage" xlink:href="#calendar" class="sprite-symbol-usage" /><use id="earth-usage" xlink:href="#earth" class="sprite-symbol-usage" /><use id="family-usage" xlink:href="#family" class="sprite-symbol-usage" /><use id="hand-banknotes-usage" xlink:href="#hand-banknotes" class="sprite-symbol-usage" /><use id="hand-credit-card-usage" xlink:href="#hand-credit-card" class="sprite-symbol-usage" /><use id="snowboard-usage" xlink:href="#snowboard" class="sprite-symbol-usage" /><use id="suitcase-usage" xlink:href="#suitcase" class="sprite-symbol-usage" /><use id="umbrella-usage" xlink:href="#umbrella" class="sprite-symbol-usage" /></svg>