<svg width="14" height="17" viewBox="0 0 14 17" fill="none" xmlns="http://www.w3.org/2000/svg">
<path d="M0 14.2156L1.42151 10.5276V5.62907C1.42151 2.52518 3.92397 0 6.99992 0C10.076 0 12.5785 2.52518 12.5785 5.62907V10.5276L14 14.2156H9.32598V14.3295C9.32598 15.6236 8.28251 16.6765 6.99992 16.6765C5.71749 16.6765 4.67402 15.6236 4.67402 14.3295V14.2156H0ZM11.3591 5.62907C11.3591 3.2037 9.40362 1.23047 6.99992 1.23047C4.59638 1.23047 2.64091 3.2037 2.64091 5.62907V10.0278H11.3591V5.62907ZM11.5517 11.2583H2.44831L1.78273 12.9851H12.2173L11.5517 11.2583ZM5.89342 14.3295C5.89342 14.9452 6.38991 15.4461 6.99992 15.4461C7.61009 15.4461 8.10658 14.9452 8.10658 14.3295V14.2156H5.89358V14.3295H5.89342Z" fill="#004077"/>
</svg>
