<svg width="11" height="14" viewBox="0 0 11 14" fill="none" xmlns="http://www.w3.org/2000/svg">
<path d="M9.7253 5.25H8.8917V4.08332C8.8917 1.83176 7.14664 0 5.00159 0C2.85653 0 1.11147 1.83176 1.11147 4.08332V5.25H0.277874C0.124284 5.25 0 5.38046 0 5.54168V12.8334C0 13.4768 0.498465 14 1.11147 14H8.89172C9.5047 14 10.0032 13.4768 10.0032 12.8333V5.54168C10.0032 5.38046 9.87889 5.25 9.7253 5.25ZM5.83357 11.3428C5.84224 11.4251 5.81703 11.5077 5.76438 11.5696C5.71173 11.6313 5.63629 11.6667 5.55733 11.6667H4.44586C4.3669 11.6667 4.29146 11.6313 4.23882 11.5696C4.18617 11.5078 4.16093 11.4251 4.16963 11.3428L4.34492 9.68825C4.06027 9.47092 3.89014 9.12712 3.89014 8.75C3.89014 8.10657 4.3886 7.58332 5.00161 7.58332C5.61462 7.58332 6.11308 8.10655 6.11308 8.75C6.11308 9.12712 5.94295 9.47092 5.6583 9.68825L5.83357 11.3428ZM7.2245 5.25H2.77867V4.08332C2.77867 2.79675 3.77588 1.75 5.00159 1.75C6.22729 1.75 7.2245 2.79675 7.2245 4.08332V5.25Z" fill="#B2B2B2"/>
</svg>
