<svg width="13" height="13" viewBox="0 0 13 13" fill="none" xmlns="http://www.w3.org/2000/svg">
<path d="M5.87831 6.50199L0.123962 12.2965C-0.0359037 12.4575 -0.0359037 12.7183 0.123962 12.8793C0.203793 12.9599 0.30861 13 0.413223 13C0.51804 13 0.622653 12.9599 0.702484 12.8793L6.5001 7.04119L12.2977 12.8793C12.3778 12.9599 12.4824 13 12.587 13C12.6916 13 12.7964 12.9599 12.8762 12.8793C13.0361 12.7183 13.0361 12.4575 12.8762 12.2965L7.12209 6.50199L12.8801 0.703352C13.04 0.54237 13.04 0.281566 12.8801 0.120583C12.7202 -0.0401945 12.4612 -0.0401945 12.3016 0.120583L6.5003 5.96279L0.698422 0.120788C0.538556 -0.0399899 0.279765 -0.0399899 0.119899 0.120788C-0.0399664 0.28177 -0.0399664 0.542574 0.119899 0.703557L5.87831 6.50199Z" fill="#1D1D1B"/>
</svg>
